<?xml version="1.0" encoding="UTF-8" standalone="no"?>
<svg width="29760px" height="4209.46px" viewBox="0 0 29760 4209.46"
 xmlns="http://www.w3.org/2000/svg" xmlns:xlink="http://www.w3.org/1999/xlink" version="1.2" baseProfile="tiny">
<title>.kolme-kakea-wide-H5WhgP</title>
<desc>Generated by MuseScore 3.6.2</desc>
<polyline class="StaffLines" fill="none" stroke="#000000" stroke-width="2.73" stroke-linejoin="bevel" points="336.599,634.199 5306.02,634.199"/>
<polyline class="StaffLines" fill="none" stroke="#000000" stroke-width="2.73" stroke-linejoin="bevel" points="336.599,658.999 5306.02,658.999"/>
<polyline class="StaffLines" fill="none" stroke="#000000" stroke-width="2.73" stroke-linejoin="bevel" points="336.599,683.799 5306.02,683.799"/>
<polyline class="StaffLines" fill="none" stroke="#000000" stroke-width="2.73" stroke-linejoin="bevel" points="336.599,708.599 5306.02,708.599"/>
<polyline class="StaffLines" fill="none" stroke="#000000" stroke-width="2.73" stroke-linejoin="bevel" points="336.599,733.399 5306.02,733.399"/>
<polyline class="StaffLines" fill="none" stroke="#000000" stroke-width="2.73" stroke-linejoin="bevel" points="336.599,894.599 5306.02,894.599"/>
<polyline class="StaffLines" fill="none" stroke="#000000" stroke-width="2.73" stroke-linejoin="bevel" points="336.599,919.399 5306.02,919.399"/>
<polyline class="StaffLines" fill="none" stroke="#000000" stroke-width="2.73" stroke-linejoin="bevel" points="336.599,944.199 5306.02,944.199"/>
<polyline class="StaffLines" fill="none" stroke="#000000" stroke-width="2.73" stroke-linejoin="bevel" points="336.599,968.999 5306.02,968.999"/>
<polyline class="StaffLines" fill="none" stroke="#000000" stroke-width="2.73" stroke-linejoin="bevel" points="336.599,993.8 5306.02,993.8"/>
<polyline class="StaffLines" fill="none" stroke="#000000" stroke-width="2.73" stroke-linejoin="bevel" points="336.599,1155 5306.02,1155"/>
<polyline class="StaffLines" fill="none" stroke="#000000" stroke-width="2.73" stroke-linejoin="bevel" points="336.599,1179.8 5306.02,1179.8"/>
<polyline class="StaffLines" fill="none" stroke="#000000" stroke-width="2.73" stroke-linejoin="bevel" points="336.599,1204.6 5306.02,1204.6"/>
<polyline class="StaffLines" fill="none" stroke="#000000" stroke-width="2.73" stroke-linejoin="bevel" points="336.599,1229.4 5306.02,1229.4"/>
<polyline class="StaffLines" fill="none" stroke="#000000" stroke-width="2.73" stroke-linejoin="bevel" points="336.599,1254.2 5306.02,1254.2"/>
<polyline class="StaffLines" fill="none" stroke="#000000" stroke-width="2.73" stroke-linejoin="bevel" points="336.599,1415.4 5306.02,1415.4"/>
<polyline class="StaffLines" fill="none" stroke="#000000" stroke-width="2.73" stroke-linejoin="bevel" points="336.599,1440.2 5306.02,1440.2"/>
<polyline class="StaffLines" fill="none" stroke="#000000" stroke-width="2.73" stroke-linejoin="bevel" points="336.599,1465 5306.02,1465"/>
<polyline class="StaffLines" fill="none" stroke="#000000" stroke-width="2.73" stroke-linejoin="bevel" points="336.599,1489.8 5306.02,1489.8"/>
<polyline class="StaffLines" fill="none" stroke="#000000" stroke-width="2.73" stroke-linejoin="bevel" points="336.599,1514.6 5306.02,1514.6"/>
<path class="SlurSegment" stroke="#000000" stroke-width="1.74" stroke-linecap="round" stroke-linejoin="round" fill-rule="evenodd" d="M1526.36,1611.32 C1561.79,1637.94 1627,1631.74 1656.78,1598.92 C1627.66,1638.65 1562.45,1644.85 1526.36,1611.32"/>
<path class="SlurSegment" stroke="#000000" stroke-width="1.74" stroke-linecap="round" stroke-linejoin="round" fill-rule="evenodd" d="M3509.08,1536.92 C3537.08,1568.55 3598.79,1574.75 3632.52,1549.32 C3598.1,1581.66 3536.38,1575.46 3509.08,1536.92"/>
<path class="SlurSegment" stroke="#000000" stroke-width="1.74" stroke-linecap="round" stroke-linejoin="round" fill-rule="evenodd" d="M3755.95,1561.72 C3783.94,1593.35 3845.66,1599.55 3879.39,1574.12 C3844.97,1606.46 3783.25,1600.26 3755.95,1561.72"/>
<path class="SlurSegment" stroke="#000000" stroke-width="1.74" stroke-linecap="round" stroke-linejoin="round" fill-rule="evenodd" d="M1526.36,1326.12 C1561.79,1352.74 1627,1346.54 1656.78,1313.72 C1627.66,1353.45 1562.45,1359.65 1526.36,1326.12"/>
<path class="SlurSegment" stroke="#000000" stroke-width="1.74" stroke-linecap="round" stroke-linejoin="round" fill-rule="evenodd" d="M3509.08,1251.72 C3537.08,1283.35 3598.79,1289.55 3632.52,1264.12 C3598.1,1296.46 3536.38,1290.26 3509.08,1251.72"/>
<path class="SlurSegment" stroke="#000000" stroke-width="1.74" stroke-linecap="round" stroke-linejoin="round" fill-rule="evenodd" d="M3755.95,1276.52 C3789.68,1301.95 3851.39,1295.75 3879.39,1264.12 C3852.09,1302.66 3790.37,1308.86 3755.95,1276.52"/>
<path class="SlurSegment" stroke="#000000" stroke-width="1.74" stroke-linecap="round" stroke-linejoin="round" fill-rule="evenodd" d="M1042.04,978.919 C1068.76,1009.67 1127.99,1015.87 1160.49,991.32 C1127.26,1022.77 1068.03,1016.57 1042.04,978.919"/>
<path class="SlurSegment" stroke="#000000" stroke-width="1.74" stroke-linecap="round" stroke-linejoin="round" fill-rule="evenodd" d="M1787.2,921.879 C1816.32,882.151 1881.53,875.951 1917.61,909.479 C1882.18,882.864 1816.98,889.064 1787.2,921.879"/>
<path class="SlurSegment" stroke="#000000" stroke-width="1.74" stroke-linecap="round" stroke-linejoin="round" fill-rule="evenodd" d="M2048.03,978.919 C2075,1014.72 2140.21,1027.12 2178.45,1003.72 C2138.91,1033.95 2073.71,1021.55 2048.03,978.919"/>
<path class="SlurSegment" stroke="#000000" stroke-width="1.74" stroke-linecap="round" stroke-linejoin="round" fill-rule="evenodd" d="M2853.62,991.32 C2880.24,1022 2939.28,1028.2 2971.69,1003.72 C2938.55,1035.1 2879.51,1028.9 2853.62,991.32"/>
<path class="SlurSegment" stroke="#000000" stroke-width="1.74" stroke-linecap="round" stroke-linejoin="round" fill-rule="evenodd" d="M4681.73,991.32 C4708.35,1022 4767.39,1028.2 4799.81,1003.72 C4766.67,1035.1 4707.63,1028.9 4681.73,991.32"/>
<path class="SlurSegment" stroke="#000000" stroke-width="1.74" stroke-linecap="round" stroke-linejoin="round" fill-rule="evenodd" d="M1278.95,718.519 C1340.81,762.065 1464.51,762.065 1526.36,718.519 C1464.51,769.009 1340.81,769.009 1278.95,718.519"/>
<path class="SlurSegment" stroke="#000000" stroke-width="1.74" stroke-linecap="round" stroke-linejoin="round" fill-rule="evenodd" d="M4445.58,624.279 C4478.72,592.895 4537.76,599.095 4563.65,636.679 C4537.03,606.001 4477.99,599.801 4445.58,624.279"/>
<path class="SlurSegment" stroke="#000000" stroke-width="1.74" stroke-linecap="round" stroke-linejoin="round" fill-rule="evenodd" d="M4681.73,649.079 C4707.63,611.495 4766.67,605.295 4799.81,636.679 C4767.39,612.201 4708.35,618.401 4681.73,649.079"/>
<path class="TieSegment" stroke="#000000" stroke-width="1.74" stroke-linecap="round" stroke-linejoin="round" fill-rule="evenodd" d="M2313.7,1558 C2373.34,1586.77 2552.27,1586.77 2611.91,1558 C2552.27,1593.71 2373.34,1593.71 2313.7,1558"/>
<path class="TieSegment" stroke="#000000" stroke-width="1.74" stroke-linecap="round" stroke-linejoin="round" fill-rule="evenodd" d="M4205.15,1558 C4252.13,1586.77 4393.05,1586.77 4440.03,1558 C4393.05,1593.71 4252.13,1593.71 4205.15,1558"/>
<path class="TieSegment" stroke="#000000" stroke-width="1.74" stroke-linecap="round" stroke-linejoin="round" fill-rule="evenodd" d="M2313.7,1260.4 C2373.34,1289.17 2552.27,1289.17 2611.91,1260.4 C2552.27,1296.11 2373.34,1296.11 2313.7,1260.4"/>
<path class="TieSegment" stroke="#000000" stroke-width="1.74" stroke-linecap="round" stroke-linejoin="round" fill-rule="evenodd" d="M4205.15,1248 C4252.13,1276.77 4393.05,1276.77 4440.03,1248 C4393.05,1283.71 4252.13,1283.71 4205.15,1248"/>
<path class="TieSegment" stroke="#000000" stroke-width="1.74" stroke-linecap="round" stroke-linejoin="round" fill-rule="evenodd" d="M3283.53,987.6 C3327.53,1016.37 3459.53,1016.37 3503.53,987.6 C3459.53,1023.31 3327.53,1023.31 3283.53,987.6"/>
<path class="TieSegment" stroke="#000000" stroke-width="1.74" stroke-linecap="round" stroke-linejoin="round" fill-rule="evenodd" d="M3283.53,652.799 C3327.53,617.087 3459.53,617.087 3503.53,652.799 C3459.53,624.031 3327.53,624.031 3283.53,652.799"/>
<polyline class="BarLine" stroke="#000000" stroke-width="4.46" stroke-linejoin="bevel" points="338.831,1414.04 338.831,1515.96"/>
<polyline class="BarLine" stroke="#000000" stroke-width="4.46" stroke-linejoin="bevel" points="1454.6,1414.04 1454.6,1515.96"/>
<polyline class="BarLine" stroke="#000000" stroke-width="4.46" stroke-linejoin="bevel" points="2555.81,1414.04 2555.81,1515.96"/>
<polyline class="BarLine" stroke="#000000" stroke-width="4.46" stroke-linejoin="bevel" points="3453.73,1414.04 3453.73,1515.96"/>
<polyline class="BarLine" stroke="#000000" stroke-width="4.46" stroke-linejoin="bevel" points="4383.93,1414.04 4383.93,1515.96"/>
<polyline class="BarLine" stroke="#000000" stroke-width="4.46" stroke-linejoin="bevel" points="5281.84,1414.04 5281.84,1515.96"/>
<polyline class="BarLine" stroke="#000000" stroke-width="13.64" stroke-linejoin="bevel" points="5299.2,1414.04 5299.2,1515.96"/>
<polyline class="BarLine" stroke="#000000" stroke-width="4.46" stroke-linejoin="bevel" points="338.831,1153.64 338.831,1415.4"/>
<polyline class="BarLine" stroke="#000000" stroke-width="4.46" stroke-linejoin="bevel" points="1454.6,1153.64 1454.6,1255.56"/>
<polyline class="BarLine" stroke="#000000" stroke-width="4.46" stroke-linejoin="bevel" points="2555.81,1153.64 2555.81,1255.56"/>
<polyline class="BarLine" stroke="#000000" stroke-width="4.46" stroke-linejoin="bevel" points="3453.73,1153.64 3453.73,1255.56"/>
<polyline class="BarLine" stroke="#000000" stroke-width="4.46" stroke-linejoin="bevel" points="4383.93,1153.64 4383.93,1255.56"/>
<polyline class="BarLine" stroke="#000000" stroke-width="4.46" stroke-linejoin="bevel" points="5281.84,1153.64 5281.84,1255.56"/>
<polyline class="BarLine" stroke="#000000" stroke-width="13.64" stroke-linejoin="bevel" points="5299.2,1153.64 5299.2,1255.56"/>
<polyline class="BarLine" stroke="#000000" stroke-width="4.46" stroke-linejoin="bevel" points="338.831,893.235 338.831,1155"/>
<polyline class="BarLine" stroke="#000000" stroke-width="4.46" stroke-linejoin="bevel" points="1454.6,893.235 1454.6,995.164"/>
<polyline class="BarLine" stroke="#000000" stroke-width="4.46" stroke-linejoin="bevel" points="2555.81,893.235 2555.81,995.164"/>
<polyline class="BarLine" stroke="#000000" stroke-width="4.46" stroke-linejoin="bevel" points="3453.73,893.235 3453.73,995.164"/>
<polyline class="BarLine" stroke="#000000" stroke-width="4.46" stroke-linejoin="bevel" points="4383.93,893.235 4383.93,995.164"/>
<polyline class="BarLine" stroke="#000000" stroke-width="4.46" stroke-linejoin="bevel" points="5281.84,893.235 5281.84,995.164"/>
<polyline class="BarLine" stroke="#000000" stroke-width="13.64" stroke-linejoin="bevel" points="5299.2,893.235 5299.2,995.164"/>
<polyline class="BarLine" stroke="#000000" stroke-width="4.46" stroke-linejoin="bevel" points="338.831,632.835 338.831,894.599"/>
<polyline class="BarLine" stroke="#000000" stroke-width="4.46" stroke-linejoin="bevel" points="1454.6,632.835 1454.6,734.763"/>
<polyline class="BarLine" stroke="#000000" stroke-width="4.46" stroke-linejoin="bevel" points="2555.81,632.835 2555.81,734.763"/>
<polyline class="BarLine" stroke="#000000" stroke-width="4.46" stroke-linejoin="bevel" points="3453.73,632.835 3453.73,734.763"/>
<polyline class="BarLine" stroke="#000000" stroke-width="4.46" stroke-linejoin="bevel" points="4383.93,632.835 4383.93,734.763"/>
<polyline class="BarLine" stroke="#000000" stroke-width="4.46" stroke-linejoin="bevel" points="5281.84,632.835 5281.84,734.763"/>
<polyline class="BarLine" stroke="#000000" stroke-width="13.64" stroke-linejoin="bevel" points="5299.2,632.835 5299.2,734.763"/>
<path class="Accidental" transform="matrix(0.992001,0,0,0.992001,1739.24,1564.2)" d="M16.5938,-18.2969 C16.4063,-18.5 16.0938,-18.5938 15.7969,-18.5938 C15.7031,-18.5938 15.5,-18.5 15.4063,-18.5 L2.79688,-15 L2.79688,-32.5 L0,-32.5 L0,17 C0,17.7969 0.59375,18.2969 1.40625,18.2969 L1.79688,18.2969 L14.4063,14.7969 L14.4063,32.2969 L17.0938,32.2969 L17.0938,-17.2031 C17.0938,-17.5938 16.9063,-18.0938 16.5938,-18.2969 M14.4063,6.5 L2.79688,9.70313 L2.79688,-6.70313 L14.4063,-10 L14.4063,6.5 "/>
<path class="Accidental" transform="matrix(0.992001,0,0,0.992001,1478.41,1303.8)" d="M16.5938,-18.2969 C16.4063,-18.5 16.0938,-18.5938 15.7969,-18.5938 C15.7031,-18.5938 15.5,-18.5 15.4063,-18.5 L2.79688,-15 L2.79688,-32.5 L0,-32.5 L0,17 C0,17.7969 0.59375,18.2969 1.40625,18.2969 L1.79688,18.2969 L14.4063,14.7969 L14.4063,32.2969 L17.0938,32.2969 L17.0938,-17.2031 C17.0938,-17.5938 16.9063,-18.0938 16.5938,-18.2969 M14.4063,6.5 L2.79688,9.70313 L2.79688,-6.70313 L14.4063,-10 L14.4063,6.5 "/>
<path class="Accidental" transform="matrix(0.992001,0,0,0.992001,813.228,956.599)" d="M16.5938,-18.2969 C16.4063,-18.5 16.0938,-18.5938 15.7969,-18.5938 C15.7031,-18.5938 15.5,-18.5 15.4063,-18.5 L2.79688,-15 L2.79688,-32.5 L0,-32.5 L0,17 C0,17.7969 0.59375,18.2969 1.40625,18.2969 L1.79688,18.2969 L14.4063,14.7969 L14.4063,32.2969 L17.0938,32.2969 L17.0938,-17.2031 C17.0938,-17.5938 16.9063,-18.0938 16.5938,-18.2969 M14.4063,6.5 L2.79688,9.70313 L2.79688,-6.70313 L14.4063,-10 L14.4063,6.5 "/>
<path class="Accidental" transform="matrix(0.992001,0,0,0.992001,1487.09,956.599)" d="M16.5938,-18.2969 C16.4063,-18.5 16.0938,-18.5938 15.7969,-18.5938 C15.7031,-18.5938 15.5,-18.5 15.4063,-18.5 L2.79688,-15 L2.79688,-32.5 L0,-32.5 L0,17 C0,17.7969 0.59375,18.2969 1.40625,18.2969 L1.79688,18.2969 L14.4063,14.7969 L14.4063,32.2969 L17.0938,32.2969 L17.0938,-17.2031 C17.0938,-17.5938 16.9063,-18.0938 16.5938,-18.2969 M14.4063,6.5 L2.79688,9.70313 L2.79688,-6.70313 L14.4063,-10 L14.4063,6.5 "/>
<path class="Accidental" transform="matrix(0.992001,0,0,0.992001,2696.27,956.599)" d="M16.5938,-18.2969 C16.4063,-18.5 16.0938,-18.5938 15.7969,-18.5938 C15.7031,-18.5938 15.5,-18.5 15.4063,-18.5 L2.79688,-15 L2.79688,-32.5 L0,-32.5 L0,17 C0,17.7969 0.59375,18.2969 1.40625,18.2969 L1.79688,18.2969 L14.4063,14.7969 L14.4063,32.2969 L17.0938,32.2969 L17.0938,-17.2031 C17.0938,-17.5938 16.9063,-18.0938 16.5938,-18.2969 M14.4063,6.5 L2.79688,9.70313 L2.79688,-6.70313 L14.4063,-10 L14.4063,6.5 "/>
<path class="Accidental" transform="matrix(0.992001,0,0,0.992001,4524.38,956.599)" d="M16.5938,-18.2969 C16.4063,-18.5 16.0938,-18.5938 15.7969,-18.5938 C15.7031,-18.5938 15.5,-18.5 15.4063,-18.5 L2.79688,-15 L2.79688,-32.5 L0,-32.5 L0,17 C0,17.7969 0.59375,18.2969 1.40625,18.2969 L1.79688,18.2969 L14.4063,14.7969 L14.4063,32.2969 L17.0938,32.2969 L17.0938,-17.2031 C17.0938,-17.5938 16.9063,-18.0938 16.5938,-18.2969 M14.4063,6.5 L2.79688,9.70313 L2.79688,-6.70313 L14.4063,-10 L14.4063,6.5 "/>
<path class="Accidental" transform="matrix(0.992001,0,0,0.992001,1239.68,696.199)" d="M16.5938,-18.2969 C16.4063,-18.5 16.0938,-18.5938 15.7969,-18.5938 C15.7031,-18.5938 15.5,-18.5 15.4063,-18.5 L2.79688,-15 L2.79688,-32.5 L0,-32.5 L0,17 C0,17.7969 0.59375,18.2969 1.40625,18.2969 L1.79688,18.2969 L14.4063,14.7969 L14.4063,32.2969 L17.0938,32.2969 L17.0938,-17.2031 C17.0938,-17.5938 16.9063,-18.0938 16.5938,-18.2969 M14.4063,6.5 L2.79688,9.70313 L2.79688,-6.70313 L14.4063,-10 L14.4063,6.5 "/>
<path class="Accidental" transform="matrix(0.992001,0,0,0.992001,1487.09,696.199)" d="M16.5938,-18.2969 C16.4063,-18.5 16.0938,-18.5938 15.7969,-18.5938 C15.7031,-18.5938 15.5,-18.5 15.4063,-18.5 L2.79688,-15 L2.79688,-32.5 L0,-32.5 L0,17 C0,17.7969 0.59375,18.2969 1.40625,18.2969 L1.79688,18.2969 L14.4063,14.7969 L14.4063,32.2969 L17.0938,32.2969 L17.0938,-17.2031 C17.0938,-17.5938 16.9063,-18.0938 16.5938,-18.2969 M14.4063,6.5 L2.79688,9.70313 L2.79688,-6.70313 L14.4063,-10 L14.4063,6.5 "/>
<polyline class="LedgerLine" stroke="#000000" stroke-width="3.97" stroke-linejoin="bevel" points="635.788,1539.4 690.146,1539.4"/>
<polyline class="LedgerLine" stroke="#000000" stroke-width="3.97" stroke-linejoin="bevel" points="1501.57,1589 1551.16,1589"/>
<polyline class="LedgerLine" stroke="#000000" stroke-width="3.97" stroke-linejoin="bevel" points="1501.57,1564.2 1551.16,1564.2"/>
<polyline class="LedgerLine" stroke="#000000" stroke-width="3.97" stroke-linejoin="bevel" points="1501.57,1539.4 1551.16,1539.4"/>
<polyline class="LedgerLine" stroke="#000000" stroke-width="3.97" stroke-linejoin="bevel" points="1631.98,1564.2 1681.58,1564.2"/>
<polyline class="LedgerLine" stroke="#000000" stroke-width="3.97" stroke-linejoin="bevel" points="1631.98,1539.4 1681.58,1539.4"/>
<polyline class="LedgerLine" stroke="#000000" stroke-width="3.97" stroke-linejoin="bevel" points="1762.4,1564.2 1811.99,1564.2"/>
<polyline class="LedgerLine" stroke="#000000" stroke-width="3.97" stroke-linejoin="bevel" points="1762.4,1539.4 1811.99,1539.4"/>
<polyline class="LedgerLine" stroke="#000000" stroke-width="3.97" stroke-linejoin="bevel" points="2023.23,1539.4 2072.83,1539.4"/>
<polyline class="LedgerLine" stroke="#000000" stroke-width="3.97" stroke-linejoin="bevel" points="2284.07,1539.4 2333.66,1539.4"/>
<polyline class="LedgerLine" stroke="#000000" stroke-width="3.97" stroke-linejoin="bevel" points="2590.28,1539.4 2644.64,1539.4"/>
<polyline class="LedgerLine" stroke="#000000" stroke-width="3.97" stroke-linejoin="bevel" points="3731.16,1539.4 3780.75,1539.4"/>
<polyline class="LedgerLine" stroke="#000000" stroke-width="3.97" stroke-linejoin="bevel" points="3854.59,1539.4 3904.18,1539.4"/>
<polyline class="LedgerLine" stroke="#000000" stroke-width="3.97" stroke-linejoin="bevel" points="3978.02,1539.4 4027.62,1539.4"/>
<polyline class="LedgerLine" stroke="#000000" stroke-width="3.97" stroke-linejoin="bevel" points="4175.52,1539.4 4225.11,1539.4"/>
<polyline class="LedgerLine" stroke="#000000" stroke-width="3.97" stroke-linejoin="bevel" points="4418.4,1539.4 4472.76,1539.4"/>
<polyline class="LedgerLine" stroke="#000000" stroke-width="3.97" stroke-linejoin="bevel" points="1501.57,1303.8 1551.16,1303.8"/>
<polyline class="LedgerLine" stroke="#000000" stroke-width="3.97" stroke-linejoin="bevel" points="1501.57,1279 1551.16,1279"/>
<polyline class="LedgerLine" stroke="#000000" stroke-width="3.97" stroke-linejoin="bevel" points="1631.98,1279 1681.58,1279"/>
<polyline class="LedgerLine" stroke="#000000" stroke-width="3.97" stroke-linejoin="bevel" points="1762.4,1279 1811.99,1279"/>
<polyline class="Stem" stroke="#000000" stroke-width="2.73" stroke-linejoin="bevel" points="1541.12,1585.83 1541.12,1471.2"/>
<polyline class="Stem" stroke="#000000" stroke-width="2.73" stroke-linejoin="bevel" points="1671.53,1573.43 1671.53,1465"/>
<polyline class="Stem" stroke="#000000" stroke-width="2.73" stroke-linejoin="bevel" points="1801.95,1561.03 1801.95,1465"/>
<polyline class="Stem" stroke="#000000" stroke-width="2.73" stroke-linejoin="bevel" points="2062.78,1536.23 2062.78,1452.6"/>
<polyline class="Stem" stroke="#000000" stroke-width="2.73" stroke-linejoin="bevel" points="2323.61,1536.23 2323.61,1452.6"/>
<polyline class="Stem" stroke="#000000" stroke-width="2.73" stroke-linejoin="bevel" points="3523.84,1511.43 3523.84,1440.2"/>
<polyline class="Stem" stroke="#000000" stroke-width="2.73" stroke-linejoin="bevel" points="3647.27,1523.83 3647.27,1450.53"/>
<polyline class="Stem" stroke="#000000" stroke-width="2.73" stroke-linejoin="bevel" points="3770.7,1536.23 3770.7,1460.87"/>
<polyline class="Stem" stroke="#000000" stroke-width="2.73" stroke-linejoin="bevel" points="3894.14,1548.63 3894.14,1471.2"/>
<polyline class="Stem" stroke="#000000" stroke-width="2.73" stroke-linejoin="bevel" points="4017.57,1536.23 4017.57,1452.6"/>
<polyline class="Stem" stroke="#000000" stroke-width="2.73" stroke-linejoin="bevel" points="4215.07,1536.23 4215.07,1452.6"/>
<polyline class="Stem" stroke="#000000" stroke-width="2.73" stroke-linejoin="bevel" points="1541.12,1300.63 1541.12,1210.8"/>
<polyline class="Stem" stroke="#000000" stroke-width="2.73" stroke-linejoin="bevel" points="1671.53,1288.23 1671.53,1204.6"/>
<polyline class="Stem" stroke="#000000" stroke-width="2.73" stroke-linejoin="bevel" points="1801.95,1275.83 1801.95,1192.2"/>
<polyline class="Stem" stroke="#000000" stroke-width="2.73" stroke-linejoin="bevel" points="2062.78,1238.63 2062.78,1155"/>
<polyline class="Stem" stroke="#000000" stroke-width="2.73" stroke-linejoin="bevel" points="2323.61,1238.63 2323.61,1155"/>
<polyline class="Stem" stroke="#000000" stroke-width="2.73" stroke-linejoin="bevel" points="3523.84,1226.23 3523.84,1155"/>
<polyline class="Stem" stroke="#000000" stroke-width="2.73" stroke-linejoin="bevel" points="3647.27,1238.63 3647.27,1157.07"/>
<polyline class="Stem" stroke="#000000" stroke-width="2.73" stroke-linejoin="bevel" points="3770.7,1251.03 3770.7,1159.13"/>
<polyline class="Stem" stroke="#000000" stroke-width="2.73" stroke-linejoin="bevel" points="3894.14,1238.63 3894.14,1161.2"/>
<polyline class="Stem" stroke="#000000" stroke-width="2.73" stroke-linejoin="bevel" points="4017.57,1226.23 4017.57,1145.7"/>
<polyline class="Stem" stroke="#000000" stroke-width="2.73" stroke-linejoin="bevel" points="4215.07,1226.23 4215.07,1145.7"/>
<polyline class="Stem" stroke="#000000" stroke-width="2.73" stroke-linejoin="bevel" points="648.215,947.533 648.215,1021.7"/>
<polyline class="Stem" stroke="#000000" stroke-width="2.73" stroke-linejoin="bevel" points="867.253,953.425 867.253,875.999"/>
<polyline class="Stem" stroke="#000000" stroke-width="2.73" stroke-linejoin="bevel" points="1056.79,953.425 1056.79,888.399"/>
<polyline class="Stem" stroke="#000000" stroke-width="2.73" stroke-linejoin="bevel" points="1175.25,965.825 1175.25,894.599"/>
<polyline class="Stem" stroke="#000000" stroke-width="2.73" stroke-linejoin="bevel" points="1293.71,978.225 1293.71,894.599"/>
<polyline class="Stem" stroke="#000000" stroke-width="2.73" stroke-linejoin="bevel" points="1541.12,953.425 1541.12,875.999"/>
<polyline class="Stem" stroke="#000000" stroke-width="2.73" stroke-linejoin="bevel" points="1772.44,947.533 1772.44,1018.6"/>
<polyline class="Stem" stroke="#000000" stroke-width="2.73" stroke-linejoin="bevel" points="1902.86,935.133 1902.86,1012.4"/>
<polyline class="Stem" stroke="#000000" stroke-width="2.73" stroke-linejoin="bevel" points="2062.78,953.425 2062.78,875.999"/>
<polyline class="Stem" stroke="#000000" stroke-width="2.73" stroke-linejoin="bevel" points="2193.2,978.225 2193.2,894.599"/>
<polyline class="Stem" stroke="#000000" stroke-width="2.73" stroke-linejoin="bevel" points="2454.03,978.225 2454.03,894.599"/>
<polyline class="Stem" stroke="#000000" stroke-width="2.73" stroke-linejoin="bevel" points="2632.21,941.025 2632.21,869.799"/>
<polyline class="Stem" stroke="#000000" stroke-width="2.73" stroke-linejoin="bevel" points="2750.29,953.425 2750.29,880.133"/>
<polyline class="Stem" stroke="#000000" stroke-width="2.73" stroke-linejoin="bevel" points="2868.37,965.825 2868.37,890.466"/>
<polyline class="Stem" stroke="#000000" stroke-width="2.73" stroke-linejoin="bevel" points="2986.44,978.225 2986.44,900.799"/>
<polyline class="Stem" stroke="#000000" stroke-width="2.73" stroke-linejoin="bevel" points="3104.52,965.825 3104.52,885.299"/>
<polyline class="Stem" stroke="#000000" stroke-width="2.73" stroke-linejoin="bevel" points="3293.44,965.825 3293.44,885.299"/>
<polyline class="Stem" stroke="#000000" stroke-width="2.73" stroke-linejoin="bevel" points="4460.33,941.025 4460.33,869.799"/>
<polyline class="Stem" stroke="#000000" stroke-width="2.73" stroke-linejoin="bevel" points="4578.41,953.425 4578.41,880.133"/>
<polyline class="Stem" stroke="#000000" stroke-width="2.73" stroke-linejoin="bevel" points="4696.48,965.825 4696.48,890.466"/>
<polyline class="Stem" stroke="#000000" stroke-width="2.73" stroke-linejoin="bevel" points="4814.56,978.225 4814.56,900.799"/>
<polyline class="Stem" stroke="#000000" stroke-width="2.73" stroke-linejoin="bevel" points="4932.64,965.825 4932.64,885.299"/>
<polyline class="Stem" stroke="#000000" stroke-width="2.73" stroke-linejoin="bevel" points="5121.56,965.825 5121.56,885.299"/>
<polyline class="Stem" stroke="#000000" stroke-width="2.73" stroke-linejoin="bevel" points="648.215,662.332 648.215,742.699"/>
<polyline class="Stem" stroke="#000000" stroke-width="2.73" stroke-linejoin="bevel" points="837.749,674.732 837.749,751.999"/>
<polyline class="Stem" stroke="#000000" stroke-width="2.73" stroke-linejoin="bevel" points="1027.28,674.732 1027.28,751.999"/>
<polyline class="Stem" stroke="#000000" stroke-width="2.73" stroke-linejoin="bevel" points="1293.71,693.025 1293.71,615.599"/>
<polyline class="Stem" stroke="#000000" stroke-width="2.73" stroke-linejoin="bevel" points="1541.12,693.025 1541.12,615.599"/>
<polyline class="Stem" stroke="#000000" stroke-width="2.73" stroke-linejoin="bevel" points="2602.71,662.332 2602.71,742.699"/>
<polyline class="Stem" stroke="#000000" stroke-width="2.73" stroke-linejoin="bevel" points="2838.86,674.732 2838.86,751.999"/>
<polyline class="Stem" stroke="#000000" stroke-width="2.73" stroke-linejoin="bevel" points="3075.02,674.732 3075.02,751.999"/>
<polyline class="Stem" stroke="#000000" stroke-width="2.73" stroke-linejoin="bevel" points="3263.94,674.732 3263.94,751.999"/>
<polyline class="Stem" stroke="#000000" stroke-width="2.73" stroke-linejoin="bevel" points="4430.83,649.932 4430.83,739.599"/>
<polyline class="Stem" stroke="#000000" stroke-width="2.73" stroke-linejoin="bevel" points="4548.9,662.332 4548.9,739.599"/>
<polyline class="Stem" stroke="#000000" stroke-width="2.73" stroke-linejoin="bevel" points="4666.98,674.732 4666.98,739.599"/>
<polyline class="Stem" stroke="#000000" stroke-width="2.73" stroke-linejoin="bevel" points="4785.05,662.332 4785.05,739.599"/>
<polyline class="Stem" stroke="#000000" stroke-width="2.73" stroke-linejoin="bevel" points="4903.13,674.732 4903.13,751.999"/>
<polyline class="Stem" stroke="#000000" stroke-width="2.73" stroke-linejoin="bevel" points="5092.05,674.732 5092.05,751.999"/>
<path class="Note" transform="matrix(0.992001,0,0,0.992001,644.468,1539.4)" d="M18.7031,-13.5938 C4.90625,-13.5938 0,-6.59375 0,-0.09375 C0,6.40625 4.90625,13.4063 18.7031,13.4063 C32.5,13.4063 37.2969,6.40625 37.2969,-0.09375 C37.2969,-6.59375 32.5,-13.5938 18.7031,-13.5938 M10.4063,-4.5 C10.2969,-4.90625 10.2969,-5.29688 10.2969,-5.70313 C10.2969,-6.5 10.5,-7.29688 10.9063,-8 C11.5938,-9 12.7969,-9.70313 14.2969,-10 C15.5938,-10.2969 16.2969,-10.5 18.9063,-10.5 L19,-10.5 C23,-10.5 24.2969,-6.79688 25.4063,-3 L25.7031,-2 C26.5,0.59375 26.9063,2.79688 26.9063,4.5 C26.9063,5.70313 26.7031,6.79688 26.2969,7.59375 C25.7031,8.70313 24.7031,9.40625 23,9.79688 C22.0938,10 20.5938,10.0938 20.5938,10.0938 C20.0938,10.0938 19.7031,10.2031 19.2969,10.2031 C16.0938,10.2031 14.0938,9 12.7031,4.70313 C11.5,1 11.2969,-0.09375 10.4063,-4.5"/>
<path class="Note" transform="matrix(0.992001,0,0,0.992001,1510.25,1589)" d="M31.5,-8.09375 C29.7031,-11.4063 25.9063,-13.2031 21.2969,-13.2031 C17.9063,-13.2031 14.2031,-12.2031 10.5938,-10.2969 C4,-6.79688 0,-0.90625 0,4.20313 C0,5.59375 0.296875,7 1,8.29688 C2.79688,11.5938 6.59375,13.2969 11.2031,13.2969 C14.5938,13.2969 18.2969,12.4063 21.9063,10.5 C28.5,7 32.5,1.09375 32.5,-4 C32.5,-5.40625 32.2031,-6.79688 31.5,-8.09375"/>
<path class="Note" transform="matrix(0.992001,0,0,0.992001,1640.66,1576.6)" d="M31.5,-8.09375 C29.7031,-11.4063 25.9063,-13.2031 21.2969,-13.2031 C17.9063,-13.2031 14.2031,-12.2031 10.5938,-10.2969 C4,-6.79688 0,-0.90625 0,4.20313 C0,5.59375 0.296875,7 1,8.29688 C2.79688,11.5938 6.59375,13.2969 11.2031,13.2969 C14.5938,13.2969 18.2969,12.4063 21.9063,10.5 C28.5,7 32.5,1.09375 32.5,-4 C32.5,-5.40625 32.2031,-6.79688 31.5,-8.09375"/>
<path class="Note" transform="matrix(0.992001,0,0,0.992001,1771.08,1564.2)" d="M31.5,-8.09375 C29.7031,-11.4063 25.9063,-13.2031 21.2969,-13.2031 C17.9063,-13.2031 14.2031,-12.2031 10.5938,-10.2969 C4,-6.79688 0,-0.90625 0,4.20313 C0,5.59375 0.296875,7 1,8.29688 C2.79688,11.5938 6.59375,13.2969 11.2031,13.2969 C14.5938,13.2969 18.2969,12.4063 21.9063,10.5 C28.5,7 32.5,1.09375 32.5,-4 C32.5,-5.40625 32.2031,-6.79688 31.5,-8.09375"/>
<path class="Note" transform="matrix(0.992001,0,0,0.992001,2031.91,1539.4)" d="M31.5,-8.09375 C29.7031,-11.4063 25.9063,-13.2031 21.2969,-13.2031 C17.9063,-13.2031 14.2031,-12.2031 10.5938,-10.2969 C4,-6.79688 0,-0.90625 0,4.20313 C0,5.59375 0.296875,7 1,8.29688 C2.79688,11.5938 6.59375,13.2969 11.2031,13.2969 C14.5938,13.2969 18.2969,12.4063 21.9063,10.5 C28.5,7 32.5,1.09375 32.5,-4 C32.5,-5.40625 32.2031,-6.79688 31.5,-8.09375"/>
<path class="Note" transform="matrix(0.992001,0,0,0.992001,2292.75,1539.4)" d="M31.5,-8.09375 C29.7031,-11.4063 25.9063,-13.2031 21.2969,-13.2031 C17.9063,-13.2031 14.2031,-12.2031 10.5938,-10.2969 C4,-6.79688 0,-0.90625 0,4.20313 C0,5.59375 0.296875,7 1,8.29688 C2.79688,11.5938 6.59375,13.2969 11.2031,13.2969 C14.5938,13.2969 18.2969,12.4063 21.9063,10.5 C28.5,7 32.5,1.09375 32.5,-4 C32.5,-5.40625 32.2031,-6.79688 31.5,-8.09375"/>
<path class="Note" transform="matrix(0.992001,0,0,0.992001,2598.96,1539.4)" d="M18.7031,-13.5938 C4.90625,-13.5938 0,-6.59375 0,-0.09375 C0,6.40625 4.90625,13.4063 18.7031,13.4063 C32.5,13.4063 37.2969,6.40625 37.2969,-0.09375 C37.2969,-6.59375 32.5,-13.5938 18.7031,-13.5938 M10.4063,-4.5 C10.2969,-4.90625 10.2969,-5.29688 10.2969,-5.70313 C10.2969,-6.5 10.5,-7.29688 10.9063,-8 C11.5938,-9 12.7969,-9.70313 14.2969,-10 C15.5938,-10.2969 16.2969,-10.5 18.9063,-10.5 L19,-10.5 C23,-10.5 24.2969,-6.79688 25.4063,-3 L25.7031,-2 C26.5,0.59375 26.9063,2.79688 26.9063,4.5 C26.9063,5.70313 26.7031,6.79688 26.2969,7.59375 C25.7031,8.70313 24.7031,9.40625 23,9.79688 C22.0938,10 20.5938,10.0938 20.5938,10.0938 C20.0938,10.0938 19.7031,10.2031 19.2969,10.2031 C16.0938,10.2031 14.0938,9 12.7031,4.70313 C11.5,1 11.2969,-0.09375 10.4063,-4.5"/>
<path class="Note" transform="matrix(0.992001,0,0,0.992001,3492.97,1514.6)" d="M31.5,-8.09375 C29.7031,-11.4063 25.9063,-13.2031 21.2969,-13.2031 C17.9063,-13.2031 14.2031,-12.2031 10.5938,-10.2969 C4,-6.79688 0,-0.90625 0,4.20313 C0,5.59375 0.296875,7 1,8.29688 C2.79688,11.5938 6.59375,13.2969 11.2031,13.2969 C14.5938,13.2969 18.2969,12.4063 21.9063,10.5 C28.5,7 32.5,1.09375 32.5,-4 C32.5,-5.40625 32.2031,-6.79688 31.5,-8.09375"/>
<path class="Note" transform="matrix(0.992001,0,0,0.992001,3616.4,1527)" d="M31.5,-8.09375 C29.7031,-11.4063 25.9063,-13.2031 21.2969,-13.2031 C17.9063,-13.2031 14.2031,-12.2031 10.5938,-10.2969 C4,-6.79688 0,-0.90625 0,4.20313 C0,5.59375 0.296875,7 1,8.29688 C2.79688,11.5938 6.59375,13.2969 11.2031,13.2969 C14.5938,13.2969 18.2969,12.4063 21.9063,10.5 C28.5,7 32.5,1.09375 32.5,-4 C32.5,-5.40625 32.2031,-6.79688 31.5,-8.09375"/>
<path class="Note" transform="matrix(0.992001,0,0,0.992001,3739.84,1539.4)" d="M31.5,-8.09375 C29.7031,-11.4063 25.9063,-13.2031 21.2969,-13.2031 C17.9063,-13.2031 14.2031,-12.2031 10.5938,-10.2969 C4,-6.79688 0,-0.90625 0,4.20313 C0,5.59375 0.296875,7 1,8.29688 C2.79688,11.5938 6.59375,13.2969 11.2031,13.2969 C14.5938,13.2969 18.2969,12.4063 21.9063,10.5 C28.5,7 32.5,1.09375 32.5,-4 C32.5,-5.40625 32.2031,-6.79688 31.5,-8.09375"/>
<path class="Note" transform="matrix(0.992001,0,0,0.992001,3863.27,1551.8)" d="M31.5,-8.09375 C29.7031,-11.4063 25.9063,-13.2031 21.2969,-13.2031 C17.9063,-13.2031 14.2031,-12.2031 10.5938,-10.2969 C4,-6.79688 0,-0.90625 0,4.20313 C0,5.59375 0.296875,7 1,8.29688 C2.79688,11.5938 6.59375,13.2969 11.2031,13.2969 C14.5938,13.2969 18.2969,12.4063 21.9063,10.5 C28.5,7 32.5,1.09375 32.5,-4 C32.5,-5.40625 32.2031,-6.79688 31.5,-8.09375"/>
<path class="Note" transform="matrix(0.992001,0,0,0.992001,3986.7,1539.4)" d="M31.5,-8.09375 C29.7031,-11.4063 25.9063,-13.2031 21.2969,-13.2031 C17.9063,-13.2031 14.2031,-12.2031 10.5938,-10.2969 C4,-6.79688 0,-0.90625 0,4.20313 C0,5.59375 0.296875,7 1,8.29688 C2.79688,11.5938 6.59375,13.2969 11.2031,13.2969 C14.5938,13.2969 18.2969,12.4063 21.9063,10.5 C28.5,7 32.5,1.09375 32.5,-4 C32.5,-5.40625 32.2031,-6.79688 31.5,-8.09375"/>
<path class="Note" transform="matrix(0.992001,0,0,0.992001,4184.2,1539.4)" d="M31.5,-8.09375 C29.7031,-11.4063 25.9063,-13.2031 21.2969,-13.2031 C17.9063,-13.2031 14.2031,-12.2031 10.5938,-10.2969 C4,-6.79688 0,-0.90625 0,4.20313 C0,5.59375 0.296875,7 1,8.29688 C2.79688,11.5938 6.59375,13.2969 11.2031,13.2969 C14.5938,13.2969 18.2969,12.4063 21.9063,10.5 C28.5,7 32.5,1.09375 32.5,-4 C32.5,-5.40625 32.2031,-6.79688 31.5,-8.09375"/>
<path class="Note" transform="matrix(0.992001,0,0,0.992001,4427.08,1539.4)" d="M18.7031,-13.5938 C4.90625,-13.5938 0,-6.59375 0,-0.09375 C0,6.40625 4.90625,13.4063 18.7031,13.4063 C32.5,13.4063 37.2969,6.40625 37.2969,-0.09375 C37.2969,-6.59375 32.5,-13.5938 18.7031,-13.5938 M10.4063,-4.5 C10.2969,-4.90625 10.2969,-5.29688 10.2969,-5.70313 C10.2969,-6.5 10.5,-7.29688 10.9063,-8 C11.5938,-9 12.7969,-9.70313 14.2969,-10 C15.5938,-10.2969 16.2969,-10.5 18.9063,-10.5 L19,-10.5 C23,-10.5 24.2969,-6.79688 25.4063,-3 L25.7031,-2 C26.5,0.59375 26.9063,2.79688 26.9063,4.5 C26.9063,5.70313 26.7031,6.79688 26.2969,7.59375 C25.7031,8.70313 24.7031,9.40625 23,9.79688 C22.0938,10 20.5938,10.0938 20.5938,10.0938 C20.0938,10.0938 19.7031,10.2031 19.2969,10.2031 C16.0938,10.2031 14.0938,9 12.7031,4.70313 C11.5,1 11.2969,-0.09375 10.4063,-4.5"/>
<path class="Note" transform="matrix(0.992001,0,0,0.992001,644.468,1241.8)" d="M18.7031,-13.5938 C4.90625,-13.5938 0,-6.59375 0,-0.09375 C0,6.40625 4.90625,13.4063 18.7031,13.4063 C32.5,13.4063 37.2969,6.40625 37.2969,-0.09375 C37.2969,-6.59375 32.5,-13.5938 18.7031,-13.5938 M10.4063,-4.5 C10.2969,-4.90625 10.2969,-5.29688 10.2969,-5.70313 C10.2969,-6.5 10.5,-7.29688 10.9063,-8 C11.5938,-9 12.7969,-9.70313 14.2969,-10 C15.5938,-10.2969 16.2969,-10.5 18.9063,-10.5 L19,-10.5 C23,-10.5 24.2969,-6.79688 25.4063,-3 L25.7031,-2 C26.5,0.59375 26.9063,2.79688 26.9063,4.5 C26.9063,5.70313 26.7031,6.79688 26.2969,7.59375 C25.7031,8.70313 24.7031,9.40625 23,9.79688 C22.0938,10 20.5938,10.0938 20.5938,10.0938 C20.0938,10.0938 19.7031,10.2031 19.2969,10.2031 C16.0938,10.2031 14.0938,9 12.7031,4.70313 C11.5,1 11.2969,-0.09375 10.4063,-4.5"/>
<path class="Note" transform="matrix(0.992001,0,0,0.992001,1510.25,1303.8)" d="M31.5,-8.09375 C29.7031,-11.4063 25.9063,-13.2031 21.2969,-13.2031 C17.9063,-13.2031 14.2031,-12.2031 10.5938,-10.2969 C4,-6.79688 0,-0.90625 0,4.20313 C0,5.59375 0.296875,7 1,8.29688 C2.79688,11.5938 6.59375,13.2969 11.2031,13.2969 C14.5938,13.2969 18.2969,12.4063 21.9063,10.5 C28.5,7 32.5,1.09375 32.5,-4 C32.5,-5.40625 32.2031,-6.79688 31.5,-8.09375"/>
<path class="Note" transform="matrix(0.992001,0,0,0.992001,1640.66,1291.4)" d="M31.5,-8.09375 C29.7031,-11.4063 25.9063,-13.2031 21.2969,-13.2031 C17.9063,-13.2031 14.2031,-12.2031 10.5938,-10.2969 C4,-6.79688 0,-0.90625 0,4.20313 C0,5.59375 0.296875,7 1,8.29688 C2.79688,11.5938 6.59375,13.2969 11.2031,13.2969 C14.5938,13.2969 18.2969,12.4063 21.9063,10.5 C28.5,7 32.5,1.09375 32.5,-4 C32.5,-5.40625 32.2031,-6.79688 31.5,-8.09375"/>
<path class="Note" transform="matrix(0.992001,0,0,0.992001,1771.08,1279)" d="M31.5,-8.09375 C29.7031,-11.4063 25.9063,-13.2031 21.2969,-13.2031 C17.9063,-13.2031 14.2031,-12.2031 10.5938,-10.2969 C4,-6.79688 0,-0.90625 0,4.20313 C0,5.59375 0.296875,7 1,8.29688 C2.79688,11.5938 6.59375,13.2969 11.2031,13.2969 C14.5938,13.2969 18.2969,12.4063 21.9063,10.5 C28.5,7 32.5,1.09375 32.5,-4 C32.5,-5.40625 32.2031,-6.79688 31.5,-8.09375"/>
<path class="Note" transform="matrix(0.992001,0,0,0.992001,2031.91,1241.8)" d="M31.5,-8.09375 C29.7031,-11.4063 25.9063,-13.2031 21.2969,-13.2031 C17.9063,-13.2031 14.2031,-12.2031 10.5938,-10.2969 C4,-6.79688 0,-0.90625 0,4.20313 C0,5.59375 0.296875,7 1,8.29688 C2.79688,11.5938 6.59375,13.2969 11.2031,13.2969 C14.5938,13.2969 18.2969,12.4063 21.9063,10.5 C28.5,7 32.5,1.09375 32.5,-4 C32.5,-5.40625 32.2031,-6.79688 31.5,-8.09375"/>
<path class="Note" transform="matrix(0.992001,0,0,0.992001,2292.75,1241.8)" d="M31.5,-8.09375 C29.7031,-11.4063 25.9063,-13.2031 21.2969,-13.2031 C17.9063,-13.2031 14.2031,-12.2031 10.5938,-10.2969 C4,-6.79688 0,-0.90625 0,4.20313 C0,5.59375 0.296875,7 1,8.29688 C2.79688,11.5938 6.59375,13.2969 11.2031,13.2969 C14.5938,13.2969 18.2969,12.4063 21.9063,10.5 C28.5,7 32.5,1.09375 32.5,-4 C32.5,-5.40625 32.2031,-6.79688 31.5,-8.09375"/>
<path class="Note" transform="matrix(0.992001,0,0,0.992001,2598.96,1241.8)" d="M18.7031,-13.5938 C4.90625,-13.5938 0,-6.59375 0,-0.09375 C0,6.40625 4.90625,13.4063 18.7031,13.4063 C32.5,13.4063 37.2969,6.40625 37.2969,-0.09375 C37.2969,-6.59375 32.5,-13.5938 18.7031,-13.5938 M10.4063,-4.5 C10.2969,-4.90625 10.2969,-5.29688 10.2969,-5.70313 C10.2969,-6.5 10.5,-7.29688 10.9063,-8 C11.5938,-9 12.7969,-9.70313 14.2969,-10 C15.5938,-10.2969 16.2969,-10.5 18.9063,-10.5 L19,-10.5 C23,-10.5 24.2969,-6.79688 25.4063,-3 L25.7031,-2 C26.5,0.59375 26.9063,2.79688 26.9063,4.5 C26.9063,5.70313 26.7031,6.79688 26.2969,7.59375 C25.7031,8.70313 24.7031,9.40625 23,9.79688 C22.0938,10 20.5938,10.0938 20.5938,10.0938 C20.0938,10.0938 19.7031,10.2031 19.2969,10.2031 C16.0938,10.2031 14.0938,9 12.7031,4.70313 C11.5,1 11.2969,-0.09375 10.4063,-4.5"/>
<path class="Note" transform="matrix(0.992001,0,0,0.992001,3492.97,1229.4)" d="M31.5,-8.09375 C29.7031,-11.4063 25.9063,-13.2031 21.2969,-13.2031 C17.9063,-13.2031 14.2031,-12.2031 10.5938,-10.2969 C4,-6.79688 0,-0.90625 0,4.20313 C0,5.59375 0.296875,7 1,8.29688 C2.79688,11.5938 6.59375,13.2969 11.2031,13.2969 C14.5938,13.2969 18.2969,12.4063 21.9063,10.5 C28.5,7 32.5,1.09375 32.5,-4 C32.5,-5.40625 32.2031,-6.79688 31.5,-8.09375"/>
<path class="Note" transform="matrix(0.992001,0,0,0.992001,3616.4,1241.8)" d="M31.5,-8.09375 C29.7031,-11.4063 25.9063,-13.2031 21.2969,-13.2031 C17.9063,-13.2031 14.2031,-12.2031 10.5938,-10.2969 C4,-6.79688 0,-0.90625 0,4.20313 C0,5.59375 0.296875,7 1,8.29688 C2.79688,11.5938 6.59375,13.2969 11.2031,13.2969 C14.5938,13.2969 18.2969,12.4063 21.9063,10.5 C28.5,7 32.5,1.09375 32.5,-4 C32.5,-5.40625 32.2031,-6.79688 31.5,-8.09375"/>
<path class="Note" transform="matrix(0.992001,0,0,0.992001,3739.84,1254.2)" d="M31.5,-8.09375 C29.7031,-11.4063 25.9063,-13.2031 21.2969,-13.2031 C17.9063,-13.2031 14.2031,-12.2031 10.5938,-10.2969 C4,-6.79688 0,-0.90625 0,4.20313 C0,5.59375 0.296875,7 1,8.29688 C2.79688,11.5938 6.59375,13.2969 11.2031,13.2969 C14.5938,13.2969 18.2969,12.4063 21.9063,10.5 C28.5,7 32.5,1.09375 32.5,-4 C32.5,-5.40625 32.2031,-6.79688 31.5,-8.09375"/>
<path class="Note" transform="matrix(0.992001,0,0,0.992001,3863.27,1241.8)" d="M31.5,-8.09375 C29.7031,-11.4063 25.9063,-13.2031 21.2969,-13.2031 C17.9063,-13.2031 14.2031,-12.2031 10.5938,-10.2969 C4,-6.79688 0,-0.90625 0,4.20313 C0,5.59375 0.296875,7 1,8.29688 C2.79688,11.5938 6.59375,13.2969 11.2031,13.2969 C14.5938,13.2969 18.2969,12.4063 21.9063,10.5 C28.5,7 32.5,1.09375 32.5,-4 C32.5,-5.40625 32.2031,-6.79688 31.5,-8.09375"/>
<path class="Note" transform="matrix(0.992001,0,0,0.992001,3986.7,1229.4)" d="M31.5,-8.09375 C29.7031,-11.4063 25.9063,-13.2031 21.2969,-13.2031 C17.9063,-13.2031 14.2031,-12.2031 10.5938,-10.2969 C4,-6.79688 0,-0.90625 0,4.20313 C0,5.59375 0.296875,7 1,8.29688 C2.79688,11.5938 6.59375,13.2969 11.2031,13.2969 C14.5938,13.2969 18.2969,12.4063 21.9063,10.5 C28.5,7 32.5,1.09375 32.5,-4 C32.5,-5.40625 32.2031,-6.79688 31.5,-8.09375"/>
<path class="Note" transform="matrix(0.992001,0,0,0.992001,4184.2,1229.4)" d="M31.5,-8.09375 C29.7031,-11.4063 25.9063,-13.2031 21.2969,-13.2031 C17.9063,-13.2031 14.2031,-12.2031 10.5938,-10.2969 C4,-6.79688 0,-0.90625 0,4.20313 C0,5.59375 0.296875,7 1,8.29688 C2.79688,11.5938 6.59375,13.2969 11.2031,13.2969 C14.5938,13.2969 18.2969,12.4063 21.9063,10.5 C28.5,7 32.5,1.09375 32.5,-4 C32.5,-5.40625 32.2031,-6.79688 31.5,-8.09375"/>
<path class="Note" transform="matrix(0.992001,0,0,0.992001,4427.08,1229.4)" d="M18.7031,-13.5938 C4.90625,-13.5938 0,-6.59375 0,-0.09375 C0,6.40625 4.90625,13.4063 18.7031,13.4063 C32.5,13.4063 37.2969,6.40625 37.2969,-0.09375 C37.2969,-6.59375 32.5,-13.5938 18.7031,-13.5938 M10.4063,-4.5 C10.2969,-4.90625 10.2969,-5.29688 10.2969,-5.70313 C10.2969,-6.5 10.5,-7.29688 10.9063,-8 C11.5938,-9 12.7969,-9.70313 14.2969,-10 C15.5938,-10.2969 16.2969,-10.5 18.9063,-10.5 L19,-10.5 C23,-10.5 24.2969,-6.79688 25.4063,-3 L25.7031,-2 C26.5,0.59375 26.9063,2.79688 26.9063,4.5 C26.9063,5.70313 26.7031,6.79688 26.2969,7.59375 C25.7031,8.70313 24.7031,9.40625 23,9.79688 C22.0938,10 20.5938,10.0938 20.5938,10.0938 C20.0938,10.0938 19.7031,10.2031 19.2969,10.2031 C16.0938,10.2031 14.0938,9 12.7031,4.70313 C11.5,1 11.2969,-0.09375 10.4063,-4.5"/>
<path class="Note" transform="matrix(0.992001,0,0,0.992001,646.851,944.199)" d="M31.5,-8.09375 C29.7031,-11.4063 25.9063,-13.2031 21.2969,-13.2031 C17.9063,-13.2031 14.2031,-12.2031 10.5938,-10.2969 C4,-6.79688 0,-0.90625 0,4.20313 C0,5.59375 0.296875,7 1,8.29688 C2.79688,11.5938 6.59375,13.2969 11.2031,13.2969 C14.5938,13.2969 18.2969,12.4063 21.9063,10.5 C28.5,7 32.5,1.09375 32.5,-4 C32.5,-5.40625 32.2031,-6.79688 31.5,-8.09375"/>
<path class="Note" transform="matrix(0.992001,0,0,0.992001,836.385,956.599)" d="M31.5,-8.09375 C29.7031,-11.4063 25.9063,-13.2031 21.2969,-13.2031 C17.9063,-13.2031 14.2031,-12.2031 10.5938,-10.2969 C4,-6.79688 0,-0.90625 0,4.20313 C0,5.59375 0.296875,7 1,8.29688 C2.79688,11.5938 6.59375,13.2969 11.2031,13.2969 C14.5938,13.2969 18.2969,12.4063 21.9063,10.5 C28.5,7 32.5,1.09375 32.5,-4 C32.5,-5.40625 32.2031,-6.79688 31.5,-8.09375"/>
<path class="Note" transform="matrix(0.992001,0,0,0.992001,1025.92,956.599)" d="M31.5,-8.09375 C29.7031,-11.4063 25.9063,-13.2031 21.2969,-13.2031 C17.9063,-13.2031 14.2031,-12.2031 10.5938,-10.2969 C4,-6.79688 0,-0.90625 0,4.20313 C0,5.59375 0.296875,7 1,8.29688 C2.79688,11.5938 6.59375,13.2969 11.2031,13.2969 C14.5938,13.2969 18.2969,12.4063 21.9063,10.5 C28.5,7 32.5,1.09375 32.5,-4 C32.5,-5.40625 32.2031,-6.79688 31.5,-8.09375"/>
<path class="Note" transform="matrix(0.992001,0,0,0.992001,1144.38,968.999)" d="M31.5,-8.09375 C29.7031,-11.4063 25.9063,-13.2031 21.2969,-13.2031 C17.9063,-13.2031 14.2031,-12.2031 10.5938,-10.2969 C4,-6.79688 0,-0.90625 0,4.20313 C0,5.59375 0.296875,7 1,8.29688 C2.79688,11.5938 6.59375,13.2969 11.2031,13.2969 C14.5938,13.2969 18.2969,12.4063 21.9063,10.5 C28.5,7 32.5,1.09375 32.5,-4 C32.5,-5.40625 32.2031,-6.79688 31.5,-8.09375"/>
<path class="Note" transform="matrix(0.992001,0,0,0.992001,1262.84,981.399)" d="M31.5,-8.09375 C29.7031,-11.4063 25.9063,-13.2031 21.2969,-13.2031 C17.9063,-13.2031 14.2031,-12.2031 10.5938,-10.2969 C4,-6.79688 0,-0.90625 0,4.20313 C0,5.59375 0.296875,7 1,8.29688 C2.79688,11.5938 6.59375,13.2969 11.2031,13.2969 C14.5938,13.2969 18.2969,12.4063 21.9063,10.5 C28.5,7 32.5,1.09375 32.5,-4 C32.5,-5.40625 32.2031,-6.79688 31.5,-8.09375"/>
<path class="Note" transform="matrix(0.992001,0,0,0.992001,1510.25,956.599)" d="M31.5,-8.09375 C29.7031,-11.4063 25.9063,-13.2031 21.2969,-13.2031 C17.9063,-13.2031 14.2031,-12.2031 10.5938,-10.2969 C4,-6.79688 0,-0.90625 0,4.20313 C0,5.59375 0.296875,7 1,8.29688 C2.79688,11.5938 6.59375,13.2969 11.2031,13.2969 C14.5938,13.2969 18.2969,12.4063 21.9063,10.5 C28.5,7 32.5,1.09375 32.5,-4 C32.5,-5.40625 32.2031,-6.79688 31.5,-8.09375"/>
<path class="Note" transform="matrix(0.992001,0,0,0.992001,1771.08,944.199)" d="M31.5,-8.09375 C29.7031,-11.4063 25.9063,-13.2031 21.2969,-13.2031 C17.9063,-13.2031 14.2031,-12.2031 10.5938,-10.2969 C4,-6.79688 0,-0.90625 0,4.20313 C0,5.59375 0.296875,7 1,8.29688 C2.79688,11.5938 6.59375,13.2969 11.2031,13.2969 C14.5938,13.2969 18.2969,12.4063 21.9063,10.5 C28.5,7 32.5,1.09375 32.5,-4 C32.5,-5.40625 32.2031,-6.79688 31.5,-8.09375"/>
<path class="Note" transform="matrix(0.992001,0,0,0.992001,1901.5,931.799)" d="M31.5,-8.09375 C29.7031,-11.4063 25.9063,-13.2031 21.2969,-13.2031 C17.9063,-13.2031 14.2031,-12.2031 10.5938,-10.2969 C4,-6.79688 0,-0.90625 0,4.20313 C0,5.59375 0.296875,7 1,8.29688 C2.79688,11.5938 6.59375,13.2969 11.2031,13.2969 C14.5938,13.2969 18.2969,12.4063 21.9063,10.5 C28.5,7 32.5,1.09375 32.5,-4 C32.5,-5.40625 32.2031,-6.79688 31.5,-8.09375"/>
<path class="Note" transform="matrix(0.992001,0,0,0.992001,2031.91,956.599)" d="M31.5,-8.09375 C29.7031,-11.4063 25.9063,-13.2031 21.2969,-13.2031 C17.9063,-13.2031 14.2031,-12.2031 10.5938,-10.2969 C4,-6.79688 0,-0.90625 0,4.20313 C0,5.59375 0.296875,7 1,8.29688 C2.79688,11.5938 6.59375,13.2969 11.2031,13.2969 C14.5938,13.2969 18.2969,12.4063 21.9063,10.5 C28.5,7 32.5,1.09375 32.5,-4 C32.5,-5.40625 32.2031,-6.79688 31.5,-8.09375"/>
<path class="Note" transform="matrix(0.992001,0,0,0.992001,2162.33,981.399)" d="M31.5,-8.09375 C29.7031,-11.4063 25.9063,-13.2031 21.2969,-13.2031 C17.9063,-13.2031 14.2031,-12.2031 10.5938,-10.2969 C4,-6.79688 0,-0.90625 0,4.20313 C0,5.59375 0.296875,7 1,8.29688 C2.79688,11.5938 6.59375,13.2969 11.2031,13.2969 C14.5938,13.2969 18.2969,12.4063 21.9063,10.5 C28.5,7 32.5,1.09375 32.5,-4 C32.5,-5.40625 32.2031,-6.79688 31.5,-8.09375"/>
<path class="Note" transform="matrix(0.992001,0,0,0.992001,2423.16,981.399)" d="M31.5,-8.09375 C29.7031,-11.4063 25.9063,-13.2031 21.2969,-13.2031 C17.9063,-13.2031 14.2031,-12.2031 10.5938,-10.2969 C4,-6.79688 0,-0.90625 0,4.20313 C0,5.59375 0.296875,7 1,8.29688 C2.79688,11.5938 6.59375,13.2969 11.2031,13.2969 C14.5938,13.2969 18.2969,12.4063 21.9063,10.5 C28.5,7 32.5,1.09375 32.5,-4 C32.5,-5.40625 32.2031,-6.79688 31.5,-8.09375"/>
<path class="Note" transform="matrix(0.992001,0,0,0.992001,2601.35,944.199)" d="M31.5,-8.09375 C29.7031,-11.4063 25.9063,-13.2031 21.2969,-13.2031 C17.9063,-13.2031 14.2031,-12.2031 10.5938,-10.2969 C4,-6.79688 0,-0.90625 0,4.20313 C0,5.59375 0.296875,7 1,8.29688 C2.79688,11.5938 6.59375,13.2969 11.2031,13.2969 C14.5938,13.2969 18.2969,12.4063 21.9063,10.5 C28.5,7 32.5,1.09375 32.5,-4 C32.5,-5.40625 32.2031,-6.79688 31.5,-8.09375"/>
<path class="Note" transform="matrix(0.992001,0,0,0.992001,2719.42,956.599)" d="M31.5,-8.09375 C29.7031,-11.4063 25.9063,-13.2031 21.2969,-13.2031 C17.9063,-13.2031 14.2031,-12.2031 10.5938,-10.2969 C4,-6.79688 0,-0.90625 0,4.20313 C0,5.59375 0.296875,7 1,8.29688 C2.79688,11.5938 6.59375,13.2969 11.2031,13.2969 C14.5938,13.2969 18.2969,12.4063 21.9063,10.5 C28.5,7 32.5,1.09375 32.5,-4 C32.5,-5.40625 32.2031,-6.79688 31.5,-8.09375"/>
<path class="Note" transform="matrix(0.992001,0,0,0.992001,2837.5,968.999)" d="M31.5,-8.09375 C29.7031,-11.4063 25.9063,-13.2031 21.2969,-13.2031 C17.9063,-13.2031 14.2031,-12.2031 10.5938,-10.2969 C4,-6.79688 0,-0.90625 0,4.20313 C0,5.59375 0.296875,7 1,8.29688 C2.79688,11.5938 6.59375,13.2969 11.2031,13.2969 C14.5938,13.2969 18.2969,12.4063 21.9063,10.5 C28.5,7 32.5,1.09375 32.5,-4 C32.5,-5.40625 32.2031,-6.79688 31.5,-8.09375"/>
<path class="Note" transform="matrix(0.992001,0,0,0.992001,2955.58,981.399)" d="M31.5,-8.09375 C29.7031,-11.4063 25.9063,-13.2031 21.2969,-13.2031 C17.9063,-13.2031 14.2031,-12.2031 10.5938,-10.2969 C4,-6.79688 0,-0.90625 0,4.20313 C0,5.59375 0.296875,7 1,8.29688 C2.79688,11.5938 6.59375,13.2969 11.2031,13.2969 C14.5938,13.2969 18.2969,12.4063 21.9063,10.5 C28.5,7 32.5,1.09375 32.5,-4 C32.5,-5.40625 32.2031,-6.79688 31.5,-8.09375"/>
<path class="Note" transform="matrix(0.992001,0,0,0.992001,3073.65,968.999)" d="M31.5,-8.09375 C29.7031,-11.4063 25.9063,-13.2031 21.2969,-13.2031 C17.9063,-13.2031 14.2031,-12.2031 10.5938,-10.2969 C4,-6.79688 0,-0.90625 0,4.20313 C0,5.59375 0.296875,7 1,8.29688 C2.79688,11.5938 6.59375,13.2969 11.2031,13.2969 C14.5938,13.2969 18.2969,12.4063 21.9063,10.5 C28.5,7 32.5,1.09375 32.5,-4 C32.5,-5.40625 32.2031,-6.79688 31.5,-8.09375"/>
<path class="Note" transform="matrix(0.992001,0,0,0.992001,3262.57,968.999)" d="M31.5,-8.09375 C29.7031,-11.4063 25.9063,-13.2031 21.2969,-13.2031 C17.9063,-13.2031 14.2031,-12.2031 10.5938,-10.2969 C4,-6.79688 0,-0.90625 0,4.20313 C0,5.59375 0.296875,7 1,8.29688 C2.79688,11.5938 6.59375,13.2969 11.2031,13.2969 C14.5938,13.2969 18.2969,12.4063 21.9063,10.5 C28.5,7 32.5,1.09375 32.5,-4 C32.5,-5.40625 32.2031,-6.79688 31.5,-8.09375"/>
<path class="Note" transform="matrix(0.992001,0,0,0.992001,3490.58,968.999)" d="M18.7031,-13.5938 C4.90625,-13.5938 0,-6.59375 0,-0.09375 C0,6.40625 4.90625,13.4063 18.7031,13.4063 C32.5,13.4063 37.2969,6.40625 37.2969,-0.09375 C37.2969,-6.59375 32.5,-13.5938 18.7031,-13.5938 M10.4063,-4.5 C10.2969,-4.90625 10.2969,-5.29688 10.2969,-5.70313 C10.2969,-6.5 10.5,-7.29688 10.9063,-8 C11.5938,-9 12.7969,-9.70313 14.2969,-10 C15.5938,-10.2969 16.2969,-10.5 18.9063,-10.5 L19,-10.5 C23,-10.5 24.2969,-6.79688 25.4063,-3 L25.7031,-2 C26.5,0.59375 26.9063,2.79688 26.9063,4.5 C26.9063,5.70313 26.7031,6.79688 26.2969,7.59375 C25.7031,8.70313 24.7031,9.40625 23,9.79688 C22.0938,10 20.5938,10.0938 20.5938,10.0938 C20.0938,10.0938 19.7031,10.2031 19.2969,10.2031 C16.0938,10.2031 14.0938,9 12.7031,4.70313 C11.5,1 11.2969,-0.09375 10.4063,-4.5"/>
<path class="Note" transform="matrix(0.992001,0,0,0.992001,4429.46,944.199)" d="M31.5,-8.09375 C29.7031,-11.4063 25.9063,-13.2031 21.2969,-13.2031 C17.9063,-13.2031 14.2031,-12.2031 10.5938,-10.2969 C4,-6.79688 0,-0.90625 0,4.20313 C0,5.59375 0.296875,7 1,8.29688 C2.79688,11.5938 6.59375,13.2969 11.2031,13.2969 C14.5938,13.2969 18.2969,12.4063 21.9063,10.5 C28.5,7 32.5,1.09375 32.5,-4 C32.5,-5.40625 32.2031,-6.79688 31.5,-8.09375"/>
<path class="Note" transform="matrix(0.992001,0,0,0.992001,4547.54,956.599)" d="M31.5,-8.09375 C29.7031,-11.4063 25.9063,-13.2031 21.2969,-13.2031 C17.9063,-13.2031 14.2031,-12.2031 10.5938,-10.2969 C4,-6.79688 0,-0.90625 0,4.20313 C0,5.59375 0.296875,7 1,8.29688 C2.79688,11.5938 6.59375,13.2969 11.2031,13.2969 C14.5938,13.2969 18.2969,12.4063 21.9063,10.5 C28.5,7 32.5,1.09375 32.5,-4 C32.5,-5.40625 32.2031,-6.79688 31.5,-8.09375"/>
<path class="Note" transform="matrix(0.992001,0,0,0.992001,4665.61,968.999)" d="M31.5,-8.09375 C29.7031,-11.4063 25.9063,-13.2031 21.2969,-13.2031 C17.9063,-13.2031 14.2031,-12.2031 10.5938,-10.2969 C4,-6.79688 0,-0.90625 0,4.20313 C0,5.59375 0.296875,7 1,8.29688 C2.79688,11.5938 6.59375,13.2969 11.2031,13.2969 C14.5938,13.2969 18.2969,12.4063 21.9063,10.5 C28.5,7 32.5,1.09375 32.5,-4 C32.5,-5.40625 32.2031,-6.79688 31.5,-8.09375"/>
<path class="Note" transform="matrix(0.992001,0,0,0.992001,4783.69,981.399)" d="M31.5,-8.09375 C29.7031,-11.4063 25.9063,-13.2031 21.2969,-13.2031 C17.9063,-13.2031 14.2031,-12.2031 10.5938,-10.2969 C4,-6.79688 0,-0.90625 0,4.20313 C0,5.59375 0.296875,7 1,8.29688 C2.79688,11.5938 6.59375,13.2969 11.2031,13.2969 C14.5938,13.2969 18.2969,12.4063 21.9063,10.5 C28.5,7 32.5,1.09375 32.5,-4 C32.5,-5.40625 32.2031,-6.79688 31.5,-8.09375"/>
<path class="Note" transform="matrix(0.992001,0,0,0.992001,4901.77,968.999)" d="M31.5,-8.09375 C29.7031,-11.4063 25.9063,-13.2031 21.2969,-13.2031 C17.9063,-13.2031 14.2031,-12.2031 10.5938,-10.2969 C4,-6.79688 0,-0.90625 0,4.20313 C0,5.59375 0.296875,7 1,8.29688 C2.79688,11.5938 6.59375,13.2969 11.2031,13.2969 C14.5938,13.2969 18.2969,12.4063 21.9063,10.5 C28.5,7 32.5,1.09375 32.5,-4 C32.5,-5.40625 32.2031,-6.79688 31.5,-8.09375"/>
<path class="Note" transform="matrix(0.992001,0,0,0.992001,5090.69,968.999)" d="M31.5,-8.09375 C29.7031,-11.4063 25.9063,-13.2031 21.2969,-13.2031 C17.9063,-13.2031 14.2031,-12.2031 10.5938,-10.2969 C4,-6.79688 0,-0.90625 0,4.20313 C0,5.59375 0.296875,7 1,8.29688 C2.79688,11.5938 6.59375,13.2969 11.2031,13.2969 C14.5938,13.2969 18.2969,12.4063 21.9063,10.5 C28.5,7 32.5,1.09375 32.5,-4 C32.5,-5.40625 32.2031,-6.79688 31.5,-8.09375"/>
<path class="Note" transform="matrix(0.992001,0,0,0.992001,646.851,658.999)" d="M31.5,-8.09375 C29.7031,-11.4063 25.9063,-13.2031 21.2969,-13.2031 C17.9063,-13.2031 14.2031,-12.2031 10.5938,-10.2969 C4,-6.79688 0,-0.90625 0,4.20313 C0,5.59375 0.296875,7 1,8.29688 C2.79688,11.5938 6.59375,13.2969 11.2031,13.2969 C14.5938,13.2969 18.2969,12.4063 21.9063,10.5 C28.5,7 32.5,1.09375 32.5,-4 C32.5,-5.40625 32.2031,-6.79688 31.5,-8.09375"/>
<path class="Note" transform="matrix(0.992001,0,0,0.992001,836.385,671.399)" d="M31.5,-8.09375 C29.7031,-11.4063 25.9063,-13.2031 21.2969,-13.2031 C17.9063,-13.2031 14.2031,-12.2031 10.5938,-10.2969 C4,-6.79688 0,-0.90625 0,4.20313 C0,5.59375 0.296875,7 1,8.29688 C2.79688,11.5938 6.59375,13.2969 11.2031,13.2969 C14.5938,13.2969 18.2969,12.4063 21.9063,10.5 C28.5,7 32.5,1.09375 32.5,-4 C32.5,-5.40625 32.2031,-6.79688 31.5,-8.09375"/>
<path class="Note" transform="matrix(0.992001,0,0,0.992001,1025.92,671.399)" d="M31.5,-8.09375 C29.7031,-11.4063 25.9063,-13.2031 21.2969,-13.2031 C17.9063,-13.2031 14.2031,-12.2031 10.5938,-10.2969 C4,-6.79688 0,-0.90625 0,4.20313 C0,5.59375 0.296875,7 1,8.29688 C2.79688,11.5938 6.59375,13.2969 11.2031,13.2969 C14.5938,13.2969 18.2969,12.4063 21.9063,10.5 C28.5,7 32.5,1.09375 32.5,-4 C32.5,-5.40625 32.2031,-6.79688 31.5,-8.09375"/>
<path class="Note" transform="matrix(0.992001,0,0,0.992001,1262.84,696.199)" d="M31.5,-8.09375 C29.7031,-11.4063 25.9063,-13.2031 21.2969,-13.2031 C17.9063,-13.2031 14.2031,-12.2031 10.5938,-10.2969 C4,-6.79688 0,-0.90625 0,4.20313 C0,5.59375 0.296875,7 1,8.29688 C2.79688,11.5938 6.59375,13.2969 11.2031,13.2969 C14.5938,13.2969 18.2969,12.4063 21.9063,10.5 C28.5,7 32.5,1.09375 32.5,-4 C32.5,-5.40625 32.2031,-6.79688 31.5,-8.09375"/>
<path class="Note" transform="matrix(0.992001,0,0,0.992001,1510.25,696.199)" d="M31.5,-8.09375 C29.7031,-11.4063 25.9063,-13.2031 21.2969,-13.2031 C17.9063,-13.2031 14.2031,-12.2031 10.5938,-10.2969 C4,-6.79688 0,-0.90625 0,4.20313 C0,5.59375 0.296875,7 1,8.29688 C2.79688,11.5938 6.59375,13.2969 11.2031,13.2969 C14.5938,13.2969 18.2969,12.4063 21.9063,10.5 C28.5,7 32.5,1.09375 32.5,-4 C32.5,-5.40625 32.2031,-6.79688 31.5,-8.09375"/>
<path class="Note" transform="matrix(0.992001,0,0,0.992001,2601.35,658.999)" d="M31.5,-8.09375 C29.7031,-11.4063 25.9063,-13.2031 21.2969,-13.2031 C17.9063,-13.2031 14.2031,-12.2031 10.5938,-10.2969 C4,-6.79688 0,-0.90625 0,4.20313 C0,5.59375 0.296875,7 1,8.29688 C2.79688,11.5938 6.59375,13.2969 11.2031,13.2969 C14.5938,13.2969 18.2969,12.4063 21.9063,10.5 C28.5,7 32.5,1.09375 32.5,-4 C32.5,-5.40625 32.2031,-6.79688 31.5,-8.09375"/>
<path class="Note" transform="matrix(0.992001,0,0,0.992001,2837.5,671.399)" d="M31.5,-8.09375 C29.7031,-11.4063 25.9063,-13.2031 21.2969,-13.2031 C17.9063,-13.2031 14.2031,-12.2031 10.5938,-10.2969 C4,-6.79688 0,-0.90625 0,4.20313 C0,5.59375 0.296875,7 1,8.29688 C2.79688,11.5938 6.59375,13.2969 11.2031,13.2969 C14.5938,13.2969 18.2969,12.4063 21.9063,10.5 C28.5,7 32.5,1.09375 32.5,-4 C32.5,-5.40625 32.2031,-6.79688 31.5,-8.09375"/>
<path class="Note" transform="matrix(0.992001,0,0,0.992001,3073.65,671.399)" d="M31.5,-8.09375 C29.7031,-11.4063 25.9063,-13.2031 21.2969,-13.2031 C17.9063,-13.2031 14.2031,-12.2031 10.5938,-10.2969 C4,-6.79688 0,-0.90625 0,4.20313 C0,5.59375 0.296875,7 1,8.29688 C2.79688,11.5938 6.59375,13.2969 11.2031,13.2969 C14.5938,13.2969 18.2969,12.4063 21.9063,10.5 C28.5,7 32.5,1.09375 32.5,-4 C32.5,-5.40625 32.2031,-6.79688 31.5,-8.09375"/>
<path class="Note" transform="matrix(0.992001,0,0,0.992001,3262.57,671.399)" d="M31.5,-8.09375 C29.7031,-11.4063 25.9063,-13.2031 21.2969,-13.2031 C17.9063,-13.2031 14.2031,-12.2031 10.5938,-10.2969 C4,-6.79688 0,-0.90625 0,4.20313 C0,5.59375 0.296875,7 1,8.29688 C2.79688,11.5938 6.59375,13.2969 11.2031,13.2969 C14.5938,13.2969 18.2969,12.4063 21.9063,10.5 C28.5,7 32.5,1.09375 32.5,-4 C32.5,-5.40625 32.2031,-6.79688 31.5,-8.09375"/>
<path class="Note" transform="matrix(0.992001,0,0,0.992001,3490.58,671.399)" d="M18.7031,-13.5938 C4.90625,-13.5938 0,-6.59375 0,-0.09375 C0,6.40625 4.90625,13.4063 18.7031,13.4063 C32.5,13.4063 37.2969,6.40625 37.2969,-0.09375 C37.2969,-6.59375 32.5,-13.5938 18.7031,-13.5938 M10.4063,-4.5 C10.2969,-4.90625 10.2969,-5.29688 10.2969,-5.70313 C10.2969,-6.5 10.5,-7.29688 10.9063,-8 C11.5938,-9 12.7969,-9.70313 14.2969,-10 C15.5938,-10.2969 16.2969,-10.5 18.9063,-10.5 L19,-10.5 C23,-10.5 24.2969,-6.79688 25.4063,-3 L25.7031,-2 C26.5,0.59375 26.9063,2.79688 26.9063,4.5 C26.9063,5.70313 26.7031,6.79688 26.2969,7.59375 C25.7031,8.70313 24.7031,9.40625 23,9.79688 C22.0938,10 20.5938,10.0938 20.5938,10.0938 C20.0938,10.0938 19.7031,10.2031 19.2969,10.2031 C16.0938,10.2031 14.0938,9 12.7031,4.70313 C11.5,1 11.2969,-0.09375 10.4063,-4.5"/>
<path class="Note" transform="matrix(0.992001,0,0,0.992001,4429.46,646.599)" d="M31.5,-8.09375 C29.7031,-11.4063 25.9063,-13.2031 21.2969,-13.2031 C17.9063,-13.2031 14.2031,-12.2031 10.5938,-10.2969 C4,-6.79688 0,-0.90625 0,4.20313 C0,5.59375 0.296875,7 1,8.29688 C2.79688,11.5938 6.59375,13.2969 11.2031,13.2969 C14.5938,13.2969 18.2969,12.4063 21.9063,10.5 C28.5,7 32.5,1.09375 32.5,-4 C32.5,-5.40625 32.2031,-6.79688 31.5,-8.09375"/>
<path class="Note" transform="matrix(0.992001,0,0,0.992001,4547.54,658.999)" d="M31.5,-8.09375 C29.7031,-11.4063 25.9063,-13.2031 21.2969,-13.2031 C17.9063,-13.2031 14.2031,-12.2031 10.5938,-10.2969 C4,-6.79688 0,-0.90625 0,4.20313 C0,5.59375 0.296875,7 1,8.29688 C2.79688,11.5938 6.59375,13.2969 11.2031,13.2969 C14.5938,13.2969 18.2969,12.4063 21.9063,10.5 C28.5,7 32.5,1.09375 32.5,-4 C32.5,-5.40625 32.2031,-6.79688 31.5,-8.09375"/>
<path class="Note" transform="matrix(0.992001,0,0,0.992001,4665.61,671.399)" d="M31.5,-8.09375 C29.7031,-11.4063 25.9063,-13.2031 21.2969,-13.2031 C17.9063,-13.2031 14.2031,-12.2031 10.5938,-10.2969 C4,-6.79688 0,-0.90625 0,4.20313 C0,5.59375 0.296875,7 1,8.29688 C2.79688,11.5938 6.59375,13.2969 11.2031,13.2969 C14.5938,13.2969 18.2969,12.4063 21.9063,10.5 C28.5,7 32.5,1.09375 32.5,-4 C32.5,-5.40625 32.2031,-6.79688 31.5,-8.09375"/>
<path class="Note" transform="matrix(0.992001,0,0,0.992001,4783.69,658.999)" d="M31.5,-8.09375 C29.7031,-11.4063 25.9063,-13.2031 21.2969,-13.2031 C17.9063,-13.2031 14.2031,-12.2031 10.5938,-10.2969 C4,-6.79688 0,-0.90625 0,4.20313 C0,5.59375 0.296875,7 1,8.29688 C2.79688,11.5938 6.59375,13.2969 11.2031,13.2969 C14.5938,13.2969 18.2969,12.4063 21.9063,10.5 C28.5,7 32.5,1.09375 32.5,-4 C32.5,-5.40625 32.2031,-6.79688 31.5,-8.09375"/>
<path class="Note" transform="matrix(0.992001,0,0,0.992001,4901.77,671.399)" d="M31.5,-8.09375 C29.7031,-11.4063 25.9063,-13.2031 21.2969,-13.2031 C17.9063,-13.2031 14.2031,-12.2031 10.5938,-10.2969 C4,-6.79688 0,-0.90625 0,4.20313 C0,5.59375 0.296875,7 1,8.29688 C2.79688,11.5938 6.59375,13.2969 11.2031,13.2969 C14.5938,13.2969 18.2969,12.4063 21.9063,10.5 C28.5,7 32.5,1.09375 32.5,-4 C32.5,-5.40625 32.2031,-6.79688 31.5,-8.09375"/>
<path class="Note" transform="matrix(0.992001,0,0,0.992001,5090.69,671.399)" d="M31.5,-8.09375 C29.7031,-11.4063 25.9063,-13.2031 21.2969,-13.2031 C17.9063,-13.2031 14.2031,-12.2031 10.5938,-10.2969 C4,-6.79688 0,-0.90625 0,4.20313 C0,5.59375 0.296875,7 1,8.29688 C2.79688,11.5938 6.59375,13.2969 11.2031,13.2969 C14.5938,13.2969 18.2969,12.4063 21.9063,10.5 C28.5,7 32.5,1.09375 32.5,-4 C32.5,-5.40625 32.2031,-6.79688 31.5,-8.09375"/>
<path class="Clef" transform="matrix(0.992001,0,0,0.992001,360.903,1489.8)" d="M63.3594,-5.92188 C62.125,-11.3438 59.4844,-15.1719 58.7031,-16.2031 C55.5156,-20.4844 51.5,-23.3281 46.8125,-24.6875 C43.7031,-25.5625 40.7031,-25.6875 38.2813,-25.5 C37.2344,-31.5156 36.2344,-37.3906 35.3281,-42.8438 C40.7813,-49.0156 44.4063,-54.8125 46.6875,-59.1094 C50.1563,-65.6875 51.2969,-70.2656 51.3594,-70.4688 C53.0781,-75.6875 53.4375,-83.3906 52.3281,-91.5938 C51.3281,-99.1406 49.2344,-105.859 46.875,-109.109 C45.8594,-110.531 44.7969,-111.266 43.7656,-111.266 C42.5469,-111.266 40.0313,-110.031 37.1406,-107.25 C34.8438,-105.063 31.5781,-101.172 29.0156,-95.1563 C26.0156,-88.0938 25.7969,-78.6094 26.1563,-71.8906 C26.5313,-64.6094 27.6406,-58.9219 27.6563,-58.875 C27.6719,-58.7813 27.9375,-57.2813 28.375,-54.7188 C28.1563,-54.4844 27.9063,-54.2656 27.6563,-54.0156 C26.625,-53.0156 25.4375,-51.8906 24.0469,-50.5 C23.1875,-49.6406 22.2344,-48.7344 21.2344,-47.7656 C12.7969,-39.625 0,-27.2969 0,-8.14063 C0,-3.4375 0.90625,0.984375 2.6875,5 C4.26563,8.59375 6.5625,11.875 9.5,14.75 C17.2344,22.3125 27.8281,25.5156 34.875,25.3594 C37.8281,25.2813 40.4688,25.0469 42.8594,24.5938 C44.6875,34.2031 45.8281,41.2344 45.8594,46.5781 C45.9063,53.0938 44.25,57.0781 40.3594,59.8438 C37.9219,61.5781 35.1094,62.5313 32.0156,62.6719 C29.4219,62.7969 27.1563,62.3281 25.7344,61.9219 L25.7188,61.9219 C25.7188,61.9219 25.4375,61.8281 25.4219,61.6406 C25.4063,61.4531 25.7656,61.4063 25.7656,61.4063 L25.7969,61.4063 C27.7188,60.9688 31.2813,59.7344 33.6406,56.4375 C35.4375,53.9063 36.3125,49.2813 34.4688,45.3438 C33.3594,42.9531 30.8594,40 25.2344,39.5469 C22.7344,39.3438 20.4688,39.8594 18.4688,41.0625 C16.6563,42.1406 15.1563,43.7813 14.1094,45.7813 C11.6563,50.4844 12.1094,56.2188 15.2344,60.0625 C18.2031,63.6875 22.8125,66 28.25,66.5781 C29.1094,66.6719 29.9531,66.7031 30.7969,66.7031 C35.2344,66.7031 39.625,65.5 43.2031,63.2969 C46.8594,60.7188 48.9844,56.7344 49.6563,51.1094 C50.2188,46.4688 49.8281,40.5469 48.4375,32.4688 C48.0781,30.375 47.5313,27.3438 46.875,23.5938 C52.625,21.6719 56.7813,18.0938 60.5469,12.2344 C63.8438,6.5 64.7813,0.390625 63.3594,-5.92188 M29.1406,20.2969 C24.5,19.0781 20.0625,16.5781 16.3125,13.0625 C15,11.8438 13.125,9.67188 11.6563,6.28125 C10.2969,3.10938 9.625,-0.328125 9.6875,-3.90625 C9.75,-8.60938 11.0625,-13.4375 13.5625,-18.2188 C16.4844,-23.7969 21.0469,-29.3281 27.1094,-34.6563 C28.5625,-35.9375 29.9375,-37.2188 31.2188,-38.5 C31.9844,-34.2344 32.8125,-29.5469 33.6875,-24.6719 C29.8438,-23.4063 25.0938,-20.25 21.9844,-14.5938 C18.4375,-8.03125 18.5781,-2.5 19.3125,0.984375 C20.25,5.4375 22.7813,9.20313 26.2344,11.2969 C27.1719,11.8594 31.2969,13.9844 33.1406,13.4063 C33.5156,13.2969 33.7813,13.0625 33.9219,12.7344 C34.4375,11.5625 33.4063,10.9219 31.8594,9.96875 C31.25,9.59375 30.5781,9.17188 29.8594,8.64063 C26.5313,6.15625 25.0781,1.70313 26.1563,-2.6875 C26.7344,-5.07813 28.0156,-7.25 29.8594,-8.95313 C31.5156,-10.5 33.5625,-11.5938 35.9375,-12.2344 C37.9844,-0.984375 40.0469,10.1719 41.6875,18.5313 C41.8125,19.2188 41.9531,19.8906 42.0781,20.5625 C37.7031,21.5 33.3594,21.4063 29.1406,20.2969 M40.4688,-12.9063 C50.8125,-13.375 55.0781,-5.9375 55.9688,-1.10938 C56.4375,1.4375 56.4375,5.875 54.8906,10.0938 C53.7188,13.2656 51.2656,17.3438 46.125,19.4063 C46.0625,18.9844 45.9844,18.5469 45.9063,18.125 C44.3594,9.34375 42.4219,-1.65625 40.4688,-12.9063 M33.1406,-83.8594 C34.9219,-89.5938 37.6563,-92.8438 39.6563,-94.5781 C41.4063,-96.0938 43.0469,-96.8125 43.9688,-96.8125 C44.1094,-96.8125 44.2344,-96.7813 44.3281,-96.75 C44.7969,-96.6094 45.3281,-96.0469 45.7969,-95.1719 C48.1094,-90.8906 47.3594,-84.1719 46.0156,-79.7344 C44.3906,-74.3281 41.4688,-68.7188 32.6719,-59.1094 C32.5,-60.2188 32.3438,-61.2656 32.1875,-62.25 C30.9375,-70.5313 31.2656,-77.8125 33.1406,-83.8594"/>
<path class="Clef" transform="matrix(0.992001,0,0,0.992001,360.903,1229.4)" d="M63.3594,-5.92188 C62.125,-11.3438 59.4844,-15.1719 58.7031,-16.2031 C55.5156,-20.4844 51.5,-23.3281 46.8125,-24.6875 C43.7031,-25.5625 40.7031,-25.6875 38.2813,-25.5 C37.2344,-31.5156 36.2344,-37.3906 35.3281,-42.8438 C40.7813,-49.0156 44.4063,-54.8125 46.6875,-59.1094 C50.1563,-65.6875 51.2969,-70.2656 51.3594,-70.4688 C53.0781,-75.6875 53.4375,-83.3906 52.3281,-91.5938 C51.3281,-99.1406 49.2344,-105.859 46.875,-109.109 C45.8594,-110.531 44.7969,-111.266 43.7656,-111.266 C42.5469,-111.266 40.0313,-110.031 37.1406,-107.25 C34.8438,-105.063 31.5781,-101.172 29.0156,-95.1563 C26.0156,-88.0938 25.7969,-78.6094 26.1563,-71.8906 C26.5313,-64.6094 27.6406,-58.9219 27.6563,-58.875 C27.6719,-58.7813 27.9375,-57.2813 28.375,-54.7188 C28.1563,-54.4844 27.9063,-54.2656 27.6563,-54.0156 C26.625,-53.0156 25.4375,-51.8906 24.0469,-50.5 C23.1875,-49.6406 22.2344,-48.7344 21.2344,-47.7656 C12.7969,-39.625 0,-27.2969 0,-8.14063 C0,-3.4375 0.90625,0.984375 2.6875,5 C4.26563,8.59375 6.5625,11.875 9.5,14.75 C17.2344,22.3125 27.8281,25.5156 34.875,25.3594 C37.8281,25.2813 40.4688,25.0469 42.8594,24.5938 C44.6875,34.2031 45.8281,41.2344 45.8594,46.5781 C45.9063,53.0938 44.25,57.0781 40.3594,59.8438 C37.9219,61.5781 35.1094,62.5313 32.0156,62.6719 C29.4219,62.7969 27.1563,62.3281 25.7344,61.9219 L25.7188,61.9219 C25.7188,61.9219 25.4375,61.8281 25.4219,61.6406 C25.4063,61.4531 25.7656,61.4063 25.7656,61.4063 L25.7969,61.4063 C27.7188,60.9688 31.2813,59.7344 33.6406,56.4375 C35.4375,53.9063 36.3125,49.2813 34.4688,45.3438 C33.3594,42.9531 30.8594,40 25.2344,39.5469 C22.7344,39.3438 20.4688,39.8594 18.4688,41.0625 C16.6563,42.1406 15.1563,43.7813 14.1094,45.7813 C11.6563,50.4844 12.1094,56.2188 15.2344,60.0625 C18.2031,63.6875 22.8125,66 28.25,66.5781 C29.1094,66.6719 29.9531,66.7031 30.7969,66.7031 C35.2344,66.7031 39.625,65.5 43.2031,63.2969 C46.8594,60.7188 48.9844,56.7344 49.6563,51.1094 C50.2188,46.4688 49.8281,40.5469 48.4375,32.4688 C48.0781,30.375 47.5313,27.3438 46.875,23.5938 C52.625,21.6719 56.7813,18.0938 60.5469,12.2344 C63.8438,6.5 64.7813,0.390625 63.3594,-5.92188 M29.1406,20.2969 C24.5,19.0781 20.0625,16.5781 16.3125,13.0625 C15,11.8438 13.125,9.67188 11.6563,6.28125 C10.2969,3.10938 9.625,-0.328125 9.6875,-3.90625 C9.75,-8.60938 11.0625,-13.4375 13.5625,-18.2188 C16.4844,-23.7969 21.0469,-29.3281 27.1094,-34.6563 C28.5625,-35.9375 29.9375,-37.2188 31.2188,-38.5 C31.9844,-34.2344 32.8125,-29.5469 33.6875,-24.6719 C29.8438,-23.4063 25.0938,-20.25 21.9844,-14.5938 C18.4375,-8.03125 18.5781,-2.5 19.3125,0.984375 C20.25,5.4375 22.7813,9.20313 26.2344,11.2969 C27.1719,11.8594 31.2969,13.9844 33.1406,13.4063 C33.5156,13.2969 33.7813,13.0625 33.9219,12.7344 C34.4375,11.5625 33.4063,10.9219 31.8594,9.96875 C31.25,9.59375 30.5781,9.17188 29.8594,8.64063 C26.5313,6.15625 25.0781,1.70313 26.1563,-2.6875 C26.7344,-5.07813 28.0156,-7.25 29.8594,-8.95313 C31.5156,-10.5 33.5625,-11.5938 35.9375,-12.2344 C37.9844,-0.984375 40.0469,10.1719 41.6875,18.5313 C41.8125,19.2188 41.9531,19.8906 42.0781,20.5625 C37.7031,21.5 33.3594,21.4063 29.1406,20.2969 M40.4688,-12.9063 C50.8125,-13.375 55.0781,-5.9375 55.9688,-1.10938 C56.4375,1.4375 56.4375,5.875 54.8906,10.0938 C53.7188,13.2656 51.2656,17.3438 46.125,19.4063 C46.0625,18.9844 45.9844,18.5469 45.9063,18.125 C44.3594,9.34375 42.4219,-1.65625 40.4688,-12.9063 M33.1406,-83.8594 C34.9219,-89.5938 37.6563,-92.8438 39.6563,-94.5781 C41.4063,-96.0938 43.0469,-96.8125 43.9688,-96.8125 C44.1094,-96.8125 44.2344,-96.7813 44.3281,-96.75 C44.7969,-96.6094 45.3281,-96.0469 45.7969,-95.1719 C48.1094,-90.8906 47.3594,-84.1719 46.0156,-79.7344 C44.3906,-74.3281 41.4688,-68.7188 32.6719,-59.1094 C32.5,-60.2188 32.3438,-61.2656 32.1875,-62.25 C30.9375,-70.5313 31.2656,-77.8125 33.1406,-83.8594"/>
<path class="Clef" transform="matrix(0.992001,0,0,0.992001,360.903,968.999)" d="M63.3594,-5.92188 C62.125,-11.3438 59.4844,-15.1719 58.7031,-16.2031 C55.5156,-20.4844 51.5,-23.3281 46.8125,-24.6875 C43.7031,-25.5625 40.7031,-25.6875 38.2813,-25.5 C37.2344,-31.5156 36.2344,-37.3906 35.3281,-42.8438 C40.7813,-49.0156 44.4063,-54.8125 46.6875,-59.1094 C50.1563,-65.6875 51.2969,-70.2656 51.3594,-70.4688 C53.0781,-75.6875 53.4375,-83.3906 52.3281,-91.5938 C51.3281,-99.1406 49.2344,-105.859 46.875,-109.109 C45.8594,-110.531 44.7969,-111.266 43.7656,-111.266 C42.5469,-111.266 40.0313,-110.031 37.1406,-107.25 C34.8438,-105.063 31.5781,-101.172 29.0156,-95.1563 C26.0156,-88.0938 25.7969,-78.6094 26.1563,-71.8906 C26.5313,-64.6094 27.6406,-58.9219 27.6563,-58.875 C27.6719,-58.7813 27.9375,-57.2813 28.375,-54.7188 C28.1563,-54.4844 27.9063,-54.2656 27.6563,-54.0156 C26.625,-53.0156 25.4375,-51.8906 24.0469,-50.5 C23.1875,-49.6406 22.2344,-48.7344 21.2344,-47.7656 C12.7969,-39.625 0,-27.2969 0,-8.14063 C0,-3.4375 0.90625,0.984375 2.6875,5 C4.26563,8.59375 6.5625,11.875 9.5,14.75 C17.2344,22.3125 27.8281,25.5156 34.875,25.3594 C37.8281,25.2813 40.4688,25.0469 42.8594,24.5938 C44.6875,34.2031 45.8281,41.2344 45.8594,46.5781 C45.9063,53.0938 44.25,57.0781 40.3594,59.8438 C37.9219,61.5781 35.1094,62.5313 32.0156,62.6719 C29.4219,62.7969 27.1563,62.3281 25.7344,61.9219 L25.7188,61.9219 C25.7188,61.9219 25.4375,61.8281 25.4219,61.6406 C25.4063,61.4531 25.7656,61.4063 25.7656,61.4063 L25.7969,61.4063 C27.7188,60.9688 31.2813,59.7344 33.6406,56.4375 C35.4375,53.9063 36.3125,49.2813 34.4688,45.3438 C33.3594,42.9531 30.8594,40 25.2344,39.5469 C22.7344,39.3438 20.4688,39.8594 18.4688,41.0625 C16.6563,42.1406 15.1563,43.7813 14.1094,45.7813 C11.6563,50.4844 12.1094,56.2188 15.2344,60.0625 C18.2031,63.6875 22.8125,66 28.25,66.5781 C29.1094,66.6719 29.9531,66.7031 30.7969,66.7031 C35.2344,66.7031 39.625,65.5 43.2031,63.2969 C46.8594,60.7188 48.9844,56.7344 49.6563,51.1094 C50.2188,46.4688 49.8281,40.5469 48.4375,32.4688 C48.0781,30.375 47.5313,27.3438 46.875,23.5938 C52.625,21.6719 56.7813,18.0938 60.5469,12.2344 C63.8438,6.5 64.7813,0.390625 63.3594,-5.92188 M29.1406,20.2969 C24.5,19.0781 20.0625,16.5781 16.3125,13.0625 C15,11.8438 13.125,9.67188 11.6563,6.28125 C10.2969,3.10938 9.625,-0.328125 9.6875,-3.90625 C9.75,-8.60938 11.0625,-13.4375 13.5625,-18.2188 C16.4844,-23.7969 21.0469,-29.3281 27.1094,-34.6563 C28.5625,-35.9375 29.9375,-37.2188 31.2188,-38.5 C31.9844,-34.2344 32.8125,-29.5469 33.6875,-24.6719 C29.8438,-23.4063 25.0938,-20.25 21.9844,-14.5938 C18.4375,-8.03125 18.5781,-2.5 19.3125,0.984375 C20.25,5.4375 22.7813,9.20313 26.2344,11.2969 C27.1719,11.8594 31.2969,13.9844 33.1406,13.4063 C33.5156,13.2969 33.7813,13.0625 33.9219,12.7344 C34.4375,11.5625 33.4063,10.9219 31.8594,9.96875 C31.25,9.59375 30.5781,9.17188 29.8594,8.64063 C26.5313,6.15625 25.0781,1.70313 26.1563,-2.6875 C26.7344,-5.07813 28.0156,-7.25 29.8594,-8.95313 C31.5156,-10.5 33.5625,-11.5938 35.9375,-12.2344 C37.9844,-0.984375 40.0469,10.1719 41.6875,18.5313 C41.8125,19.2188 41.9531,19.8906 42.0781,20.5625 C37.7031,21.5 33.3594,21.4063 29.1406,20.2969 M40.4688,-12.9063 C50.8125,-13.375 55.0781,-5.9375 55.9688,-1.10938 C56.4375,1.4375 56.4375,5.875 54.8906,10.0938 C53.7188,13.2656 51.2656,17.3438 46.125,19.4063 C46.0625,18.9844 45.9844,18.5469 45.9063,18.125 C44.3594,9.34375 42.4219,-1.65625 40.4688,-12.9063 M33.1406,-83.8594 C34.9219,-89.5938 37.6563,-92.8438 39.6563,-94.5781 C41.4063,-96.0938 43.0469,-96.8125 43.9688,-96.8125 C44.1094,-96.8125 44.2344,-96.7813 44.3281,-96.75 C44.7969,-96.6094 45.3281,-96.0469 45.7969,-95.1719 C48.1094,-90.8906 47.3594,-84.1719 46.0156,-79.7344 C44.3906,-74.3281 41.4688,-68.7188 32.6719,-59.1094 C32.5,-60.2188 32.3438,-61.2656 32.1875,-62.25 C30.9375,-70.5313 31.2656,-77.8125 33.1406,-83.8594"/>
<path class="Clef" transform="matrix(0.992001,0,0,0.992001,360.903,708.599)" d="M63.3594,-5.92188 C62.125,-11.3438 59.4844,-15.1719 58.7031,-16.2031 C55.5156,-20.4844 51.5,-23.3281 46.8125,-24.6875 C43.7031,-25.5625 40.7031,-25.6875 38.2813,-25.5 C37.2344,-31.5156 36.2344,-37.3906 35.3281,-42.8438 C40.7813,-49.0156 44.4063,-54.8125 46.6875,-59.1094 C50.1563,-65.6875 51.2969,-70.2656 51.3594,-70.4688 C53.0781,-75.6875 53.4375,-83.3906 52.3281,-91.5938 C51.3281,-99.1406 49.2344,-105.859 46.875,-109.109 C45.8594,-110.531 44.7969,-111.266 43.7656,-111.266 C42.5469,-111.266 40.0313,-110.031 37.1406,-107.25 C34.8438,-105.063 31.5781,-101.172 29.0156,-95.1563 C26.0156,-88.0938 25.7969,-78.6094 26.1563,-71.8906 C26.5313,-64.6094 27.6406,-58.9219 27.6563,-58.875 C27.6719,-58.7813 27.9375,-57.2813 28.375,-54.7188 C28.1563,-54.4844 27.9063,-54.2656 27.6563,-54.0156 C26.625,-53.0156 25.4375,-51.8906 24.0469,-50.5 C23.1875,-49.6406 22.2344,-48.7344 21.2344,-47.7656 C12.7969,-39.625 0,-27.2969 0,-8.14063 C0,-3.4375 0.90625,0.984375 2.6875,5 C4.26563,8.59375 6.5625,11.875 9.5,14.75 C17.2344,22.3125 27.8281,25.5156 34.875,25.3594 C37.8281,25.2813 40.4688,25.0469 42.8594,24.5938 C44.6875,34.2031 45.8281,41.2344 45.8594,46.5781 C45.9063,53.0938 44.25,57.0781 40.3594,59.8438 C37.9219,61.5781 35.1094,62.5313 32.0156,62.6719 C29.4219,62.7969 27.1563,62.3281 25.7344,61.9219 L25.7188,61.9219 C25.7188,61.9219 25.4375,61.8281 25.4219,61.6406 C25.4063,61.4531 25.7656,61.4063 25.7656,61.4063 L25.7969,61.4063 C27.7188,60.9688 31.2813,59.7344 33.6406,56.4375 C35.4375,53.9063 36.3125,49.2813 34.4688,45.3438 C33.3594,42.9531 30.8594,40 25.2344,39.5469 C22.7344,39.3438 20.4688,39.8594 18.4688,41.0625 C16.6563,42.1406 15.1563,43.7813 14.1094,45.7813 C11.6563,50.4844 12.1094,56.2188 15.2344,60.0625 C18.2031,63.6875 22.8125,66 28.25,66.5781 C29.1094,66.6719 29.9531,66.7031 30.7969,66.7031 C35.2344,66.7031 39.625,65.5 43.2031,63.2969 C46.8594,60.7188 48.9844,56.7344 49.6563,51.1094 C50.2188,46.4688 49.8281,40.5469 48.4375,32.4688 C48.0781,30.375 47.5313,27.3438 46.875,23.5938 C52.625,21.6719 56.7813,18.0938 60.5469,12.2344 C63.8438,6.5 64.7813,0.390625 63.3594,-5.92188 M29.1406,20.2969 C24.5,19.0781 20.0625,16.5781 16.3125,13.0625 C15,11.8438 13.125,9.67188 11.6563,6.28125 C10.2969,3.10938 9.625,-0.328125 9.6875,-3.90625 C9.75,-8.60938 11.0625,-13.4375 13.5625,-18.2188 C16.4844,-23.7969 21.0469,-29.3281 27.1094,-34.6563 C28.5625,-35.9375 29.9375,-37.2188 31.2188,-38.5 C31.9844,-34.2344 32.8125,-29.5469 33.6875,-24.6719 C29.8438,-23.4063 25.0938,-20.25 21.9844,-14.5938 C18.4375,-8.03125 18.5781,-2.5 19.3125,0.984375 C20.25,5.4375 22.7813,9.20313 26.2344,11.2969 C27.1719,11.8594 31.2969,13.9844 33.1406,13.4063 C33.5156,13.2969 33.7813,13.0625 33.9219,12.7344 C34.4375,11.5625 33.4063,10.9219 31.8594,9.96875 C31.25,9.59375 30.5781,9.17188 29.8594,8.64063 C26.5313,6.15625 25.0781,1.70313 26.1563,-2.6875 C26.7344,-5.07813 28.0156,-7.25 29.8594,-8.95313 C31.5156,-10.5 33.5625,-11.5938 35.9375,-12.2344 C37.9844,-0.984375 40.0469,10.1719 41.6875,18.5313 C41.8125,19.2188 41.9531,19.8906 42.0781,20.5625 C37.7031,21.5 33.3594,21.4063 29.1406,20.2969 M40.4688,-12.9063 C50.8125,-13.375 55.0781,-5.9375 55.9688,-1.10938 C56.4375,1.4375 56.4375,5.875 54.8906,10.0938 C53.7188,13.2656 51.2656,17.3438 46.125,19.4063 C46.0625,18.9844 45.9844,18.5469 45.9063,18.125 C44.3594,9.34375 42.4219,-1.65625 40.4688,-12.9063 M33.1406,-83.8594 C34.9219,-89.5938 37.6563,-92.8438 39.6563,-94.5781 C41.4063,-96.0938 43.0469,-96.8125 43.9688,-96.8125 C44.1094,-96.8125 44.2344,-96.7813 44.3281,-96.75 C44.7969,-96.6094 45.3281,-96.0469 45.7969,-95.1719 C48.1094,-90.8906 47.3594,-84.1719 46.0156,-79.7344 C44.3906,-74.3281 41.4688,-68.7188 32.6719,-59.1094 C32.5,-60.2188 32.3438,-61.2656 32.1875,-62.25 C30.9375,-70.5313 31.2656,-77.8125 33.1406,-83.8594"/>
<path class="KeySig" transform="matrix(0.992001,0,0,0.992001,498.775,1477.4)" d="M20.0938,-7.90625 C19.5,-11.7969 17.0938,-15.5 12,-15.5 C7,-15.5 4.09375,-12.4063 3.59375,-11.7969 L4,-43.9063 C4,-44.7031 3.40625,-45.2969 2.59375,-45.2969 L1.40625,-45.2969 C0.59375,-45.2969 0,-44.7031 0,-43.9063 L0.5,16.2031 C0.5,17 1.09375,17.5938 1.90625,17.5938 C2.09375,17.5938 2.5,17.5 2.70313,17.4063 C3.09375,17.2031 9.59375,14 15,7.90625 C18.7969,3.59375 20.2969,-1.29688 20.2969,-5.40625 C20.2969,-6.29688 20.2031,-7.09375 20.0938,-7.90625 M13.2031,-4 C13.2031,-2.5 12.7969,2.09375 10.2969,5.90625 C8.59375,8.5 5.20313,11.2031 3.29688,12.7031 L3.59375,-6.79688 C3.79688,-7.70313 5.29688,-10.5938 9.29688,-10.5938 C12.9063,-10.5938 13.2031,-7.20313 13.2031,-5.09375 L13.2031,-4 "/>
<path class="KeySig" transform="matrix(0.992001,0,0,0.992001,473.975,1427.8)" d="M20.0938,-7.90625 C19.5,-11.7969 17.0938,-15.5 12,-15.5 C7,-15.5 4.09375,-12.4063 3.59375,-11.7969 L4,-43.9063 C4,-44.7031 3.40625,-45.2969 2.59375,-45.2969 L1.40625,-45.2969 C0.59375,-45.2969 0,-44.7031 0,-43.9063 L0.5,16.2031 C0.5,17 1.09375,17.5938 1.90625,17.5938 C2.09375,17.5938 2.5,17.5 2.70313,17.4063 C3.09375,17.2031 9.59375,14 15,7.90625 C18.7969,3.59375 20.2969,-1.29688 20.2969,-5.40625 C20.2969,-6.29688 20.2031,-7.09375 20.0938,-7.90625 M13.2031,-4 C13.2031,-2.5 12.7969,2.09375 10.2969,5.90625 C8.59375,8.5 5.20313,11.2031 3.29688,12.7031 L3.59375,-6.79688 C3.79688,-7.70313 5.29688,-10.5938 9.29688,-10.5938 C12.9063,-10.5938 13.2031,-7.20313 13.2031,-5.09375 L13.2031,-4 "/>
<path class="KeySig" transform="matrix(0.992001,0,0,0.992001,449.175,1465)" d="M20.0938,-7.90625 C19.5,-11.7969 17.0938,-15.5 12,-15.5 C7,-15.5 4.09375,-12.4063 3.59375,-11.7969 L4,-43.9063 C4,-44.7031 3.40625,-45.2969 2.59375,-45.2969 L1.40625,-45.2969 C0.59375,-45.2969 0,-44.7031 0,-43.9063 L0.5,16.2031 C0.5,17 1.09375,17.5938 1.90625,17.5938 C2.09375,17.5938 2.5,17.5 2.70313,17.4063 C3.09375,17.2031 9.59375,14 15,7.90625 C18.7969,3.59375 20.2969,-1.29688 20.2969,-5.40625 C20.2969,-6.29688 20.2031,-7.09375 20.0938,-7.90625 M13.2031,-4 C13.2031,-2.5 12.7969,2.09375 10.2969,5.90625 C8.59375,8.5 5.20313,11.2031 3.29688,12.7031 L3.59375,-6.79688 C3.79688,-7.70313 5.29688,-10.5938 9.29688,-10.5938 C12.9063,-10.5938 13.2031,-7.20313 13.2031,-5.09375 L13.2031,-4 "/>
<path class="KeySig" transform="matrix(0.992001,0,0,0.992001,498.775,1217)" d="M20.0938,-7.90625 C19.5,-11.7969 17.0938,-15.5 12,-15.5 C7,-15.5 4.09375,-12.4063 3.59375,-11.7969 L4,-43.9063 C4,-44.7031 3.40625,-45.2969 2.59375,-45.2969 L1.40625,-45.2969 C0.59375,-45.2969 0,-44.7031 0,-43.9063 L0.5,16.2031 C0.5,17 1.09375,17.5938 1.90625,17.5938 C2.09375,17.5938 2.5,17.5 2.70313,17.4063 C3.09375,17.2031 9.59375,14 15,7.90625 C18.7969,3.59375 20.2969,-1.29688 20.2969,-5.40625 C20.2969,-6.29688 20.2031,-7.09375 20.0938,-7.90625 M13.2031,-4 C13.2031,-2.5 12.7969,2.09375 10.2969,5.90625 C8.59375,8.5 5.20313,11.2031 3.29688,12.7031 L3.59375,-6.79688 C3.79688,-7.70313 5.29688,-10.5938 9.29688,-10.5938 C12.9063,-10.5938 13.2031,-7.20313 13.2031,-5.09375 L13.2031,-4 "/>
<path class="KeySig" transform="matrix(0.992001,0,0,0.992001,473.975,1167.4)" d="M20.0938,-7.90625 C19.5,-11.7969 17.0938,-15.5 12,-15.5 C7,-15.5 4.09375,-12.4063 3.59375,-11.7969 L4,-43.9063 C4,-44.7031 3.40625,-45.2969 2.59375,-45.2969 L1.40625,-45.2969 C0.59375,-45.2969 0,-44.7031 0,-43.9063 L0.5,16.2031 C0.5,17 1.09375,17.5938 1.90625,17.5938 C2.09375,17.5938 2.5,17.5 2.70313,17.4063 C3.09375,17.2031 9.59375,14 15,7.90625 C18.7969,3.59375 20.2969,-1.29688 20.2969,-5.40625 C20.2969,-6.29688 20.2031,-7.09375 20.0938,-7.90625 M13.2031,-4 C13.2031,-2.5 12.7969,2.09375 10.2969,5.90625 C8.59375,8.5 5.20313,11.2031 3.29688,12.7031 L3.59375,-6.79688 C3.79688,-7.70313 5.29688,-10.5938 9.29688,-10.5938 C12.9063,-10.5938 13.2031,-7.20313 13.2031,-5.09375 L13.2031,-4 "/>
<path class="KeySig" transform="matrix(0.992001,0,0,0.992001,449.175,1204.6)" d="M20.0938,-7.90625 C19.5,-11.7969 17.0938,-15.5 12,-15.5 C7,-15.5 4.09375,-12.4063 3.59375,-11.7969 L4,-43.9063 C4,-44.7031 3.40625,-45.2969 2.59375,-45.2969 L1.40625,-45.2969 C0.59375,-45.2969 0,-44.7031 0,-43.9063 L0.5,16.2031 C0.5,17 1.09375,17.5938 1.90625,17.5938 C2.09375,17.5938 2.5,17.5 2.70313,17.4063 C3.09375,17.2031 9.59375,14 15,7.90625 C18.7969,3.59375 20.2969,-1.29688 20.2969,-5.40625 C20.2969,-6.29688 20.2031,-7.09375 20.0938,-7.90625 M13.2031,-4 C13.2031,-2.5 12.7969,2.09375 10.2969,5.90625 C8.59375,8.5 5.20313,11.2031 3.29688,12.7031 L3.59375,-6.79688 C3.79688,-7.70313 5.29688,-10.5938 9.29688,-10.5938 C12.9063,-10.5938 13.2031,-7.20313 13.2031,-5.09375 L13.2031,-4 "/>
<path class="KeySig" transform="matrix(0.992001,0,0,0.992001,498.775,956.599)" d="M20.0938,-7.90625 C19.5,-11.7969 17.0938,-15.5 12,-15.5 C7,-15.5 4.09375,-12.4063 3.59375,-11.7969 L4,-43.9063 C4,-44.7031 3.40625,-45.2969 2.59375,-45.2969 L1.40625,-45.2969 C0.59375,-45.2969 0,-44.7031 0,-43.9063 L0.5,16.2031 C0.5,17 1.09375,17.5938 1.90625,17.5938 C2.09375,17.5938 2.5,17.5 2.70313,17.4063 C3.09375,17.2031 9.59375,14 15,7.90625 C18.7969,3.59375 20.2969,-1.29688 20.2969,-5.40625 C20.2969,-6.29688 20.2031,-7.09375 20.0938,-7.90625 M13.2031,-4 C13.2031,-2.5 12.7969,2.09375 10.2969,5.90625 C8.59375,8.5 5.20313,11.2031 3.29688,12.7031 L3.59375,-6.79688 C3.79688,-7.70313 5.29688,-10.5938 9.29688,-10.5938 C12.9063,-10.5938 13.2031,-7.20313 13.2031,-5.09375 L13.2031,-4 "/>
<path class="KeySig" transform="matrix(0.992001,0,0,0.992001,473.975,906.999)" d="M20.0938,-7.90625 C19.5,-11.7969 17.0938,-15.5 12,-15.5 C7,-15.5 4.09375,-12.4063 3.59375,-11.7969 L4,-43.9063 C4,-44.7031 3.40625,-45.2969 2.59375,-45.2969 L1.40625,-45.2969 C0.59375,-45.2969 0,-44.7031 0,-43.9063 L0.5,16.2031 C0.5,17 1.09375,17.5938 1.90625,17.5938 C2.09375,17.5938 2.5,17.5 2.70313,17.4063 C3.09375,17.2031 9.59375,14 15,7.90625 C18.7969,3.59375 20.2969,-1.29688 20.2969,-5.40625 C20.2969,-6.29688 20.2031,-7.09375 20.0938,-7.90625 M13.2031,-4 C13.2031,-2.5 12.7969,2.09375 10.2969,5.90625 C8.59375,8.5 5.20313,11.2031 3.29688,12.7031 L3.59375,-6.79688 C3.79688,-7.70313 5.29688,-10.5938 9.29688,-10.5938 C12.9063,-10.5938 13.2031,-7.20313 13.2031,-5.09375 L13.2031,-4 "/>
<path class="KeySig" transform="matrix(0.992001,0,0,0.992001,449.175,944.199)" d="M20.0938,-7.90625 C19.5,-11.7969 17.0938,-15.5 12,-15.5 C7,-15.5 4.09375,-12.4063 3.59375,-11.7969 L4,-43.9063 C4,-44.7031 3.40625,-45.2969 2.59375,-45.2969 L1.40625,-45.2969 C0.59375,-45.2969 0,-44.7031 0,-43.9063 L0.5,16.2031 C0.5,17 1.09375,17.5938 1.90625,17.5938 C2.09375,17.5938 2.5,17.5 2.70313,17.4063 C3.09375,17.2031 9.59375,14 15,7.90625 C18.7969,3.59375 20.2969,-1.29688 20.2969,-5.40625 C20.2969,-6.29688 20.2031,-7.09375 20.0938,-7.90625 M13.2031,-4 C13.2031,-2.5 12.7969,2.09375 10.2969,5.90625 C8.59375,8.5 5.20313,11.2031 3.29688,12.7031 L3.59375,-6.79688 C3.79688,-7.70313 5.29688,-10.5938 9.29688,-10.5938 C12.9063,-10.5938 13.2031,-7.20313 13.2031,-5.09375 L13.2031,-4 "/>
<path class="KeySig" transform="matrix(0.992001,0,0,0.992001,498.775,696.199)" d="M20.0938,-7.90625 C19.5,-11.7969 17.0938,-15.5 12,-15.5 C7,-15.5 4.09375,-12.4063 3.59375,-11.7969 L4,-43.9063 C4,-44.7031 3.40625,-45.2969 2.59375,-45.2969 L1.40625,-45.2969 C0.59375,-45.2969 0,-44.7031 0,-43.9063 L0.5,16.2031 C0.5,17 1.09375,17.5938 1.90625,17.5938 C2.09375,17.5938 2.5,17.5 2.70313,17.4063 C3.09375,17.2031 9.59375,14 15,7.90625 C18.7969,3.59375 20.2969,-1.29688 20.2969,-5.40625 C20.2969,-6.29688 20.2031,-7.09375 20.0938,-7.90625 M13.2031,-4 C13.2031,-2.5 12.7969,2.09375 10.2969,5.90625 C8.59375,8.5 5.20313,11.2031 3.29688,12.7031 L3.59375,-6.79688 C3.79688,-7.70313 5.29688,-10.5938 9.29688,-10.5938 C12.9063,-10.5938 13.2031,-7.20313 13.2031,-5.09375 L13.2031,-4 "/>
<path class="KeySig" transform="matrix(0.992001,0,0,0.992001,473.975,646.599)" d="M20.0938,-7.90625 C19.5,-11.7969 17.0938,-15.5 12,-15.5 C7,-15.5 4.09375,-12.4063 3.59375,-11.7969 L4,-43.9063 C4,-44.7031 3.40625,-45.2969 2.59375,-45.2969 L1.40625,-45.2969 C0.59375,-45.2969 0,-44.7031 0,-43.9063 L0.5,16.2031 C0.5,17 1.09375,17.5938 1.90625,17.5938 C2.09375,17.5938 2.5,17.5 2.70313,17.4063 C3.09375,17.2031 9.59375,14 15,7.90625 C18.7969,3.59375 20.2969,-1.29688 20.2969,-5.40625 C20.2969,-6.29688 20.2031,-7.09375 20.0938,-7.90625 M13.2031,-4 C13.2031,-2.5 12.7969,2.09375 10.2969,5.90625 C8.59375,8.5 5.20313,11.2031 3.29688,12.7031 L3.59375,-6.79688 C3.79688,-7.70313 5.29688,-10.5938 9.29688,-10.5938 C12.9063,-10.5938 13.2031,-7.20313 13.2031,-5.09375 L13.2031,-4 "/>
<path class="KeySig" transform="matrix(0.992001,0,0,0.992001,449.175,683.799)" d="M20.0938,-7.90625 C19.5,-11.7969 17.0938,-15.5 12,-15.5 C7,-15.5 4.09375,-12.4063 3.59375,-11.7969 L4,-43.9063 C4,-44.7031 3.40625,-45.2969 2.59375,-45.2969 L1.40625,-45.2969 C0.59375,-45.2969 0,-44.7031 0,-43.9063 L0.5,16.2031 C0.5,17 1.09375,17.5938 1.90625,17.5938 C2.09375,17.5938 2.5,17.5 2.70313,17.4063 C3.09375,17.2031 9.59375,14 15,7.90625 C18.7969,3.59375 20.2969,-1.29688 20.2969,-5.40625 C20.2969,-6.29688 20.2031,-7.09375 20.0938,-7.90625 M13.2031,-4 C13.2031,-2.5 12.7969,2.09375 10.2969,5.90625 C8.59375,8.5 5.20313,11.2031 3.29688,12.7031 L3.59375,-6.79688 C3.79688,-7.70313 5.29688,-10.5938 9.29688,-10.5938 C12.9063,-10.5938 13.2031,-7.20313 13.2031,-5.09375 L13.2031,-4 "/>
<path class="TimeSig" transform="matrix(0.992001,0,0,0.992001,542.346,1440.33)" d="M3.59375,12.625 L20.7656,12.625 L20.7656,20.0781 L12.5469,20.0781 C11.7656,20.0781 11.125,20.7031 11.125,21.4844 L11.125,23.3906 C11.125,24.1719 11.7656,24.7969 12.5469,24.7969 L42.7969,24.7969 C43.5781,24.7969 44.2031,24.1719 44.2031,23.3906 L44.2031,21.4844 C44.2031,20.7031 43.5781,20.0781 42.7969,20.0781 L33.8594,20.0781 L33.8594,12.625 L42.7969,12.625 C43.5781,12.625 44.2031,12 44.2031,11.2188 L44.2031,9.3125 C44.2031,8.53125 43.5781,7.90625 42.7969,7.90625 L33.8594,7.90625 L33.8594,-8.0625 C33.8594,-8.59375 33.5469,-9.07813 33.0781,-9.3125 L31.8594,-9.92188 C31.3281,-10.1719 30.7031,-10.0781 30.2656,-9.6875 L21.2188,-1.375 C20.9375,-1.09375 20.7656,-0.734375 20.7656,-0.328125 L20.7656,7.90625 L9.25,7.90625 C9.25,7.90625 20.375,-4.125 32.2188,-19.8906 C33.0781,-21.0469 32.5781,-22.0938 32.3906,-22.2813 L30.2188,-24.4844 C29.9531,-24.75 29.5938,-24.9063 29.2188,-24.9063 C28.625,-24.9063 15.0625,-24.875 14.3438,-24.9063 C13.625,-24.9219 13.0938,-24.2969 13.0156,-23.6875 C13.0156,-23.6875 12.4844,-16.3281 9.875,-8.1875 C7.28125,-0.078125 4.34375,4.90625 1.6875,8.53125 C1.6875,8.53125 1.14063,9.51563 1.5,10.2656 C1.84375,11.0156 2.48438,12.0938 2.48438,12.0938 C2.48438,12.0938 2.73438,12.625 3.59375,12.625"/>
<path class="TimeSig" transform="matrix(0.992001,0,0,0.992001,542.346,1489.67)" d="M3.59375,12.625 L20.7656,12.625 L20.7656,20.0781 L12.5469,20.0781 C11.7656,20.0781 11.125,20.7031 11.125,21.4844 L11.125,23.3906 C11.125,24.1719 11.7656,24.7969 12.5469,24.7969 L42.7969,24.7969 C43.5781,24.7969 44.2031,24.1719 44.2031,23.3906 L44.2031,21.4844 C44.2031,20.7031 43.5781,20.0781 42.7969,20.0781 L33.8594,20.0781 L33.8594,12.625 L42.7969,12.625 C43.5781,12.625 44.2031,12 44.2031,11.2188 L44.2031,9.3125 C44.2031,8.53125 43.5781,7.90625 42.7969,7.90625 L33.8594,7.90625 L33.8594,-8.0625 C33.8594,-8.59375 33.5469,-9.07813 33.0781,-9.3125 L31.8594,-9.92188 C31.3281,-10.1719 30.7031,-10.0781 30.2656,-9.6875 L21.2188,-1.375 C20.9375,-1.09375 20.7656,-0.734375 20.7656,-0.328125 L20.7656,7.90625 L9.25,7.90625 C9.25,7.90625 20.375,-4.125 32.2188,-19.8906 C33.0781,-21.0469 32.5781,-22.0938 32.3906,-22.2813 L30.2188,-24.4844 C29.9531,-24.75 29.5938,-24.9063 29.2188,-24.9063 C28.625,-24.9063 15.0625,-24.875 14.3438,-24.9063 C13.625,-24.9219 13.0938,-24.2969 13.0156,-23.6875 C13.0156,-23.6875 12.4844,-16.3281 9.875,-8.1875 C7.28125,-0.078125 4.34375,4.90625 1.6875,8.53125 C1.6875,8.53125 1.14063,9.51563 1.5,10.2656 C1.84375,11.0156 2.48438,12.0938 2.48438,12.0938 C2.48438,12.0938 2.73438,12.625 3.59375,12.625"/>
<path class="TimeSig" transform="matrix(0.992001,0,0,0.992001,542.346,1179.93)" d="M3.59375,12.625 L20.7656,12.625 L20.7656,20.0781 L12.5469,20.0781 C11.7656,20.0781 11.125,20.7031 11.125,21.4844 L11.125,23.3906 C11.125,24.1719 11.7656,24.7969 12.5469,24.7969 L42.7969,24.7969 C43.5781,24.7969 44.2031,24.1719 44.2031,23.3906 L44.2031,21.4844 C44.2031,20.7031 43.5781,20.0781 42.7969,20.0781 L33.8594,20.0781 L33.8594,12.625 L42.7969,12.625 C43.5781,12.625 44.2031,12 44.2031,11.2188 L44.2031,9.3125 C44.2031,8.53125 43.5781,7.90625 42.7969,7.90625 L33.8594,7.90625 L33.8594,-8.0625 C33.8594,-8.59375 33.5469,-9.07813 33.0781,-9.3125 L31.8594,-9.92188 C31.3281,-10.1719 30.7031,-10.0781 30.2656,-9.6875 L21.2188,-1.375 C20.9375,-1.09375 20.7656,-0.734375 20.7656,-0.328125 L20.7656,7.90625 L9.25,7.90625 C9.25,7.90625 20.375,-4.125 32.2188,-19.8906 C33.0781,-21.0469 32.5781,-22.0938 32.3906,-22.2813 L30.2188,-24.4844 C29.9531,-24.75 29.5938,-24.9063 29.2188,-24.9063 C28.625,-24.9063 15.0625,-24.875 14.3438,-24.9063 C13.625,-24.9219 13.0938,-24.2969 13.0156,-23.6875 C13.0156,-23.6875 12.4844,-16.3281 9.875,-8.1875 C7.28125,-0.078125 4.34375,4.90625 1.6875,8.53125 C1.6875,8.53125 1.14063,9.51563 1.5,10.2656 C1.84375,11.0156 2.48438,12.0938 2.48438,12.0938 C2.48438,12.0938 2.73438,12.625 3.59375,12.625"/>
<path class="TimeSig" transform="matrix(0.992001,0,0,0.992001,542.346,1229.27)" d="M3.59375,12.625 L20.7656,12.625 L20.7656,20.0781 L12.5469,20.0781 C11.7656,20.0781 11.125,20.7031 11.125,21.4844 L11.125,23.3906 C11.125,24.1719 11.7656,24.7969 12.5469,24.7969 L42.7969,24.7969 C43.5781,24.7969 44.2031,24.1719 44.2031,23.3906 L44.2031,21.4844 C44.2031,20.7031 43.5781,20.0781 42.7969,20.0781 L33.8594,20.0781 L33.8594,12.625 L42.7969,12.625 C43.5781,12.625 44.2031,12 44.2031,11.2188 L44.2031,9.3125 C44.2031,8.53125 43.5781,7.90625 42.7969,7.90625 L33.8594,7.90625 L33.8594,-8.0625 C33.8594,-8.59375 33.5469,-9.07813 33.0781,-9.3125 L31.8594,-9.92188 C31.3281,-10.1719 30.7031,-10.0781 30.2656,-9.6875 L21.2188,-1.375 C20.9375,-1.09375 20.7656,-0.734375 20.7656,-0.328125 L20.7656,7.90625 L9.25,7.90625 C9.25,7.90625 20.375,-4.125 32.2188,-19.8906 C33.0781,-21.0469 32.5781,-22.0938 32.3906,-22.2813 L30.2188,-24.4844 C29.9531,-24.75 29.5938,-24.9063 29.2188,-24.9063 C28.625,-24.9063 15.0625,-24.875 14.3438,-24.9063 C13.625,-24.9219 13.0938,-24.2969 13.0156,-23.6875 C13.0156,-23.6875 12.4844,-16.3281 9.875,-8.1875 C7.28125,-0.078125 4.34375,4.90625 1.6875,8.53125 C1.6875,8.53125 1.14063,9.51563 1.5,10.2656 C1.84375,11.0156 2.48438,12.0938 2.48438,12.0938 C2.48438,12.0938 2.73438,12.625 3.59375,12.625"/>
<path class="TimeSig" transform="matrix(0.992001,0,0,0.992001,542.346,919.531)" d="M3.59375,12.625 L20.7656,12.625 L20.7656,20.0781 L12.5469,20.0781 C11.7656,20.0781 11.125,20.7031 11.125,21.4844 L11.125,23.3906 C11.125,24.1719 11.7656,24.7969 12.5469,24.7969 L42.7969,24.7969 C43.5781,24.7969 44.2031,24.1719 44.2031,23.3906 L44.2031,21.4844 C44.2031,20.7031 43.5781,20.0781 42.7969,20.0781 L33.8594,20.0781 L33.8594,12.625 L42.7969,12.625 C43.5781,12.625 44.2031,12 44.2031,11.2188 L44.2031,9.3125 C44.2031,8.53125 43.5781,7.90625 42.7969,7.90625 L33.8594,7.90625 L33.8594,-8.0625 C33.8594,-8.59375 33.5469,-9.07813 33.0781,-9.3125 L31.8594,-9.92188 C31.3281,-10.1719 30.7031,-10.0781 30.2656,-9.6875 L21.2188,-1.375 C20.9375,-1.09375 20.7656,-0.734375 20.7656,-0.328125 L20.7656,7.90625 L9.25,7.90625 C9.25,7.90625 20.375,-4.125 32.2188,-19.8906 C33.0781,-21.0469 32.5781,-22.0938 32.3906,-22.2813 L30.2188,-24.4844 C29.9531,-24.75 29.5938,-24.9063 29.2188,-24.9063 C28.625,-24.9063 15.0625,-24.875 14.3438,-24.9063 C13.625,-24.9219 13.0938,-24.2969 13.0156,-23.6875 C13.0156,-23.6875 12.4844,-16.3281 9.875,-8.1875 C7.28125,-0.078125 4.34375,4.90625 1.6875,8.53125 C1.6875,8.53125 1.14063,9.51563 1.5,10.2656 C1.84375,11.0156 2.48438,12.0938 2.48438,12.0938 C2.48438,12.0938 2.73438,12.625 3.59375,12.625"/>
<path class="TimeSig" transform="matrix(0.992001,0,0,0.992001,542.346,968.868)" d="M3.59375,12.625 L20.7656,12.625 L20.7656,20.0781 L12.5469,20.0781 C11.7656,20.0781 11.125,20.7031 11.125,21.4844 L11.125,23.3906 C11.125,24.1719 11.7656,24.7969 12.5469,24.7969 L42.7969,24.7969 C43.5781,24.7969 44.2031,24.1719 44.2031,23.3906 L44.2031,21.4844 C44.2031,20.7031 43.5781,20.0781 42.7969,20.0781 L33.8594,20.0781 L33.8594,12.625 L42.7969,12.625 C43.5781,12.625 44.2031,12 44.2031,11.2188 L44.2031,9.3125 C44.2031,8.53125 43.5781,7.90625 42.7969,7.90625 L33.8594,7.90625 L33.8594,-8.0625 C33.8594,-8.59375 33.5469,-9.07813 33.0781,-9.3125 L31.8594,-9.92188 C31.3281,-10.1719 30.7031,-10.0781 30.2656,-9.6875 L21.2188,-1.375 C20.9375,-1.09375 20.7656,-0.734375 20.7656,-0.328125 L20.7656,7.90625 L9.25,7.90625 C9.25,7.90625 20.375,-4.125 32.2188,-19.8906 C33.0781,-21.0469 32.5781,-22.0938 32.3906,-22.2813 L30.2188,-24.4844 C29.9531,-24.75 29.5938,-24.9063 29.2188,-24.9063 C28.625,-24.9063 15.0625,-24.875 14.3438,-24.9063 C13.625,-24.9219 13.0938,-24.2969 13.0156,-23.6875 C13.0156,-23.6875 12.4844,-16.3281 9.875,-8.1875 C7.28125,-0.078125 4.34375,4.90625 1.6875,8.53125 C1.6875,8.53125 1.14063,9.51563 1.5,10.2656 C1.84375,11.0156 2.48438,12.0938 2.48438,12.0938 C2.48438,12.0938 2.73438,12.625 3.59375,12.625"/>
<path class="TimeSig" transform="matrix(0.992001,0,0,0.992001,542.346,659.131)" d="M3.59375,12.625 L20.7656,12.625 L20.7656,20.0781 L12.5469,20.0781 C11.7656,20.0781 11.125,20.7031 11.125,21.4844 L11.125,23.3906 C11.125,24.1719 11.7656,24.7969 12.5469,24.7969 L42.7969,24.7969 C43.5781,24.7969 44.2031,24.1719 44.2031,23.3906 L44.2031,21.4844 C44.2031,20.7031 43.5781,20.0781 42.7969,20.0781 L33.8594,20.0781 L33.8594,12.625 L42.7969,12.625 C43.5781,12.625 44.2031,12 44.2031,11.2188 L44.2031,9.3125 C44.2031,8.53125 43.5781,7.90625 42.7969,7.90625 L33.8594,7.90625 L33.8594,-8.0625 C33.8594,-8.59375 33.5469,-9.07813 33.0781,-9.3125 L31.8594,-9.92188 C31.3281,-10.1719 30.7031,-10.0781 30.2656,-9.6875 L21.2188,-1.375 C20.9375,-1.09375 20.7656,-0.734375 20.7656,-0.328125 L20.7656,7.90625 L9.25,7.90625 C9.25,7.90625 20.375,-4.125 32.2188,-19.8906 C33.0781,-21.0469 32.5781,-22.0938 32.3906,-22.2813 L30.2188,-24.4844 C29.9531,-24.75 29.5938,-24.9063 29.2188,-24.9063 C28.625,-24.9063 15.0625,-24.875 14.3438,-24.9063 C13.625,-24.9219 13.0938,-24.2969 13.0156,-23.6875 C13.0156,-23.6875 12.4844,-16.3281 9.875,-8.1875 C7.28125,-0.078125 4.34375,4.90625 1.6875,8.53125 C1.6875,8.53125 1.14063,9.51563 1.5,10.2656 C1.84375,11.0156 2.48438,12.0938 2.48438,12.0938 C2.48438,12.0938 2.73438,12.625 3.59375,12.625"/>
<path class="TimeSig" transform="matrix(0.992001,0,0,0.992001,542.346,708.467)" d="M3.59375,12.625 L20.7656,12.625 L20.7656,20.0781 L12.5469,20.0781 C11.7656,20.0781 11.125,20.7031 11.125,21.4844 L11.125,23.3906 C11.125,24.1719 11.7656,24.7969 12.5469,24.7969 L42.7969,24.7969 C43.5781,24.7969 44.2031,24.1719 44.2031,23.3906 L44.2031,21.4844 C44.2031,20.7031 43.5781,20.0781 42.7969,20.0781 L33.8594,20.0781 L33.8594,12.625 L42.7969,12.625 C43.5781,12.625 44.2031,12 44.2031,11.2188 L44.2031,9.3125 C44.2031,8.53125 43.5781,7.90625 42.7969,7.90625 L33.8594,7.90625 L33.8594,-8.0625 C33.8594,-8.59375 33.5469,-9.07813 33.0781,-9.3125 L31.8594,-9.92188 C31.3281,-10.1719 30.7031,-10.0781 30.2656,-9.6875 L21.2188,-1.375 C20.9375,-1.09375 20.7656,-0.734375 20.7656,-0.328125 L20.7656,7.90625 L9.25,7.90625 C9.25,7.90625 20.375,-4.125 32.2188,-19.8906 C33.0781,-21.0469 32.5781,-22.0938 32.3906,-22.2813 L30.2188,-24.4844 C29.9531,-24.75 29.5938,-24.9063 29.2188,-24.9063 C28.625,-24.9063 15.0625,-24.875 14.3438,-24.9063 C13.625,-24.9219 13.0938,-24.2969 13.0156,-23.6875 C13.0156,-23.6875 12.4844,-16.3281 9.875,-8.1875 C7.28125,-0.078125 4.34375,4.90625 1.6875,8.53125 C1.6875,8.53125 1.14063,9.51563 1.5,10.2656 C1.84375,11.0156 2.48438,12.0938 2.48438,12.0938 C2.48438,12.0938 2.73438,12.625 3.59375,12.625"/>
<path class="Rest" transform="matrix(0.992001,0,0,0.992001,1771.08,683.799)" d="M23.2031,16.9063 L23,16.5938 C22.9063,16.5 22.7031,16.2969 22.4063,15.9063 L10.9063,1.70313 C10.5938,1.40625 10.7031,0.59375 10.9063,0.203125 L21.0938,-15.2031 C21.2031,-15.4063 21.2969,-15.7031 21.2969,-15.9063 L21.2969,-16.7969 C21.2969,-17.0938 21.2031,-17.4063 21,-17.5938 L4.79688,-39.5 C4.79688,-39.5 4,-40.7031 3,-39.7969 C2,-39 2.79688,-37.7031 2.79688,-37.7031 L10.4063,-27.2969 C10.7969,-26.7031 10.7969,-25.5 10.4063,-24.9063 L0.296875,-9.5 C0.203125,-9.29688 0.09375,-8.90625 0.09375,-8.70313 L0.09375,-7.79688 C0.09375,-7.5 0.203125,-7.20313 0.40625,-7 L11.5938,6.90625 C11.2031,6.79688 10.2969,6.59375 9.09375,6.59375 C7.40625,6.59375 5.20313,7 3.40625,8.59375 C1.20313,10.5938 0,13.4063 0,15.9063 C0,17.2969 0.296875,18.7031 1.09375,19.7969 C3.20313,23 10.7031,32.5 10.7031,32.5 C10.7031,32.5 11.5938,33.6094 12.5,32.9063 C13.4063,32.2031 13.2031,31.2969 12.9063,30.7969 C12.5938,30.2969 9.40625,24.5 9.40625,24.5 C9.40625,24.5 8.70313,23.0938 8.70313,21.2969 C8.70313,20 9.09375,18.4063 10.4063,17.0938 C11.5938,15.9063 13,15.5 14.2969,15.5 C15.5938,15.5 16.7031,15.9063 17.5,16.4063 L21.4063,18.9063 C21.4063,18.9063 22.5938,19.5 23.2031,18.5938 C23.7031,17.7969 23.5,17.4063 23.2031,16.9063"/>
<path class="Rest" transform="matrix(0.992001,0,0,0.992001,2031.91,683.799)" d="M0,-11.7969 L0,-1 C0,0.40625 0,0.40625 1.40625,0.40625 L31.1094,0.40625 C32.5,0.40625 32.5,0.40625 32.5,-1 L32.5,-11.7969 C32.5,-13.2031 32.5,-13.2031 31.1094,-13.2031 L1.40625,-13.2031 C0,-13.2031 0,-13.2031 0,-11.7969"/>
<path class="Beam" fill-rule="evenodd" d="M1539.75,1465.12 L1672.9,1458.79 L1672.9,1471.21 L1539.75,1477.54 L1539.75,1465.12 "/>
<path class="Beam" fill-rule="evenodd" d="M3522.47,1433.75 L3895.5,1464.98 L3895.5,1477.42 L3522.47,1446.19 L3522.47,1433.75 "/>
<path class="Beam" fill-rule="evenodd" d="M1539.75,1204.72 L1672.9,1198.39 L1672.9,1210.81 L1539.75,1217.14 L1539.75,1204.72 "/>
<path class="Beam" fill-rule="evenodd" d="M3522.47,1148.75 L3895.5,1155 L3895.5,1167.4 L3522.47,1161.15 L3522.47,1148.75 "/>
<path class="Beam" fill-rule="evenodd" d="M1055.42,882.048 L1176.61,888.391 L1176.61,900.808 L1055.42,894.465 L1055.42,882.048 "/>
<path class="Beam" fill-rule="evenodd" d="M1771.08,1012.39 L1904.23,1006.06 L1904.23,1018.48 L1771.08,1024.81 L1771.08,1012.39 "/>
<path class="Beam" fill-rule="evenodd" d="M2630.85,863.337 L2987.81,894.576 L2987.81,907.023 L2630.85,875.784 L2630.85,863.337 "/>
<path class="Beam" fill-rule="evenodd" d="M4458.97,863.337 L4815.92,894.576 L4815.92,907.023 L4458.97,875.784 L4458.97,863.337 "/>
<path class="Beam" fill-rule="evenodd" d="M4429.46,733.399 L4786.42,733.399 L4786.42,745.799 L4429.46,745.799 L4429.46,733.399 "/>
<path class="Hook" transform="matrix(0.992001,0,0,0.992001,2061.42,875.999)" d="M3.5,3.5 C3.40625,3.20313 2.5,-0.296875 2.5,-0.5 C2.40625,-0.90625 1.79688,-1.20313 1.29688,-1.20313 C0.59375,-1.20313 0,-0.59375 0,0.09375 L0,16.5 L0,22.7031 C0,23.2031 0.40625,23.5938 0.796875,23.7969 C5,25.0938 13.7031,30.6094 20.2031,41.7031 C22,44.7969 24.9063,49 24.9063,57.4063 C24.9063,64.6094 23.7969,72.2031 22,79.2031 C21.7031,80.3125 21.4063,81.3125 22.5,81.7031 C23.5938,82.1094 24,81.3125 24.4063,80.3125 C28,71.5 28.9063,62.2969 28.9063,56.1094 L28.9063,54.2031 C28.4063,41.2969 21,31.7969 21,31.7969 C21.2969,31.7969 11.7969,19.5 9.09375,15.2969 C5.40625,9.59375 3.59375,3.90625 3.5,3.5"/>
<path class="Hook" transform="matrix(0.992001,0,0,0.992001,2452.67,894.599)" d="M3.5,3.5 C3.40625,3.20313 2.5,-0.296875 2.5,-0.5 C2.40625,-0.90625 1.79688,-1.20313 1.29688,-1.20313 C0.59375,-1.20313 0,-0.59375 0,0.09375 L0,16.5 L0,22.7031 C0,23.2031 0.40625,23.5938 0.796875,23.7969 C5,25.0938 13.7031,30.6094 20.2031,41.7031 C22,44.7969 24.9063,49 24.9063,57.4063 C24.9063,64.6094 23.7969,72.2031 22,79.2031 C21.7031,80.3125 21.4063,81.3125 22.5,81.7031 C23.5938,82.1094 24,81.3125 24.4063,80.3125 C28,71.5 28.9063,62.2969 28.9063,56.1094 L28.9063,54.2031 C28.4063,41.2969 21,31.7969 21,31.7969 C21.2969,31.7969 11.7969,19.5 9.09375,15.2969 C5.40625,9.59375 3.59375,3.90625 3.5,3.5"/>
</svg>
